<svg id="svg" version="1.1" width="512" height="512" xmlns="http://www.w3.org/2000/svg" xmlns:xlink="http://www.w3.org/1999/xlink" style="display: block;"><g id="svgg"><path id="path0" d="M0.000 200.000 L 0.000 400.000 200.000 400.000 L 400.000 400.000 400.000 200.000 L 400.000 0.000 200.000 0.000 L 0.000 0.000 0.000 200.000 M117.578 10.211 C 139.555 16.026,146.851 43.472,131.117 61.142 C 125.433 67.526,125.914 72.741,133.620 88.241 C 150.018 121.226,162.895 133.098,178.309 129.441 C 194.508 125.598,218.718 125.576,234.334 129.389 C 246.629 132.391,255.430 126.881,267.548 108.594 C 283.458 84.585,288.926 69.184,283.578 63.445 C 273.530 52.659,270.510 38.152,275.901 26.563 C 278.381 21.230,286.694 12.500,289.290 12.500 C 289.852 12.500,290.646 12.208,291.055 11.850 C 294.999 8.398,308.766 8.490,316.038 12.016 C 344.538 25.838,338.669 63.578,307.031 69.930 C 293.610 72.625,291.783 75.403,285.707 102.344 C 279.484 129.942,279.167 133.855,282.451 142.580 C 285.980 151.957,286.875 153.205,294.531 159.433 C 316.933 177.654,330.550 200.376,337.337 230.859 C 341.274 248.542,340.350 279.671,335.378 296.875 C 334.323 300.527,333.279 304.219,333.058 305.078 C 332.838 305.938,332.198 307.695,331.637 308.984 C 331.077 310.273,329.718 313.486,328.617 316.122 C 323.654 328.019,313.196 343.431,302.649 354.392 C 298.727 358.468,285.705 369.531,284.829 369.531 C 284.671 369.531,288.378 365.752,293.068 361.133 C 325.083 329.596,337.424 298.475,333.200 259.929 C 332.189 250.701,325.352 232.248,320.133 224.657 C 312.840 214.052,300.392 200.464,298.599 201.152 C 298.036 201.368,297.796 201.187,298.066 200.750 C 299.560 198.333,278.473 185.494,264.614 180.384 C 236.297 169.943,193.735 168.169,162.382 176.122 C 131.432 183.973,107.069 201.277,92.334 225.875 C 88.488 232.294,82.820 245.487,82.589 248.557 C 82.529 249.351,82.273 250.000,82.020 250.000 C 79.974 250.000,78.386 278.878,79.845 289.556 C 83.036 312.914,99.203 341.874,119.911 361.328 C 120.369 361.758,122.564 363.779,124.791 365.820 C 129.562 370.194,129.096 370.697,123.927 366.751 C 118.146 362.337,106.250 351.216,106.250 350.225 C 106.250 349.987,105.631 349.224,104.874 348.529 C 100.327 344.354,88.242 325.653,84.643 317.225 C 75.707 296.298,72.244 278.626,72.864 257.124 C 73.247 243.861,73.592 240.930,76.283 228.125 C 81.853 201.620,96.042 178.424,118.364 159.330 C 124.740 153.877,132.321 143.750,130.028 143.750 C 129.736 143.750,129.853 143.311,130.288 142.773 C 132.921 139.529,133.016 127.556,130.492 117.188 C 130.126 115.684,129.280 111.992,128.612 108.984 C 121.040 74.873,119.710 72.596,105.807 69.936 C 97.602 68.367,92.536 65.849,87.571 60.875 C 65.858 39.118,87.666 2.296,117.578 10.211 M227.734 175.016 C 246.076 177.063,266.294 182.877,276.966 189.173 C 278.463 190.057,279.693 190.481,279.699 190.116 C 279.706 189.752,279.970 189.847,280.285 190.327 C 280.601 190.808,282.793 192.373,285.156 193.804 C 294.572 199.508,307.336 211.229,312.107 218.555 C 313.297 220.381,314.534 221.875,314.856 221.875 C 315.179 221.875,315.657 222.490,315.920 223.242 C 316.182 223.994,317.557 226.719,318.975 229.297 C 325.055 240.351,325.919 242.369,328.034 250.462 C 334.184 273.990,331.411 297.491,319.699 321.094 C 317.673 325.176,315.664 328.774,315.234 329.090 C 314.714 329.472,314.714 329.676,315.234 329.700 C 315.664 329.721,315.488 330.165,314.844 330.689 C 314.199 331.212,312.622 333.223,311.340 335.156 C 304.914 344.842,288.595 362.169,279.464 369.002 C 277.843 370.216,275.912 371.831,275.172 372.593 C 274.433 373.355,271.982 374.967,269.727 376.176 C 267.471 377.384,265.625 378.669,265.625 379.030 C 265.625 379.392,265.116 379.688,264.494 379.687 C 263.873 379.687,261.686 380.579,259.636 381.670 C 222.399 401.468,159.811 395.079,133.176 368.759 C 132.301 367.895,131.339 367.187,131.038 367.188 C 129.781 367.188,116.499 353.695,110.273 346.094 C 106.578 341.582,103.194 337.640,102.754 337.333 C 102.313 337.027,101.953 336.488,101.953 336.136 C 101.953 335.784,100.562 333.574,98.861 331.225 C 97.160 328.875,95.699 326.602,95.613 326.172 C 95.527 325.742,94.041 322.401,92.312 318.747 C 81.095 295.048,78.522 263.997,86.273 245.891 C 86.869 244.498,88.413 240.715,89.704 237.484 C 94.432 225.652,107.870 208.480,119.141 199.867 C 120.430 198.881,121.602 197.805,121.745 197.475 C 121.888 197.145,122.358 196.875,122.789 196.875 C 123.220 196.875,125.036 195.896,126.825 194.699 C 131.671 191.457,132.582 190.949,140.234 187.222 C 147.036 183.909,155.350 180.778,159.375 180.014 C 160.449 179.809,161.855 179.435,162.500 179.181 C 172.543 175.228,208.857 172.910,227.734 175.016 M127.378 211.827 C 111.156 214.516,95.906 232.815,91.008 255.469 C 86.342 277.043,91.547 311.859,100.823 321.136 C 101.660 321.972,102.174 322.656,101.966 322.656 C 101.375 322.656,104.541 328.448,106.059 330.144 C 106.809 330.981,109.096 333.655,111.142 336.086 C 124.349 351.776,148.837 358.842,163.989 351.335 C 167.511 349.589,175.000 343.352,175.000 342.163 C 175.000 341.800,176.060 340.342,177.356 338.924 C 178.651 337.505,179.534 335.883,179.318 335.319 C 179.101 334.755,179.211 334.471,179.562 334.688 C 180.160 335.058,181.012 333.420,183.857 326.431 C 185.331 322.810,185.060 322.584,181.026 324.075 C 172.560 327.204,156.648 325.089,147.656 319.639 C 146.152 318.728,144.395 317.741,143.750 317.447 C 143.105 317.152,142.402 316.698,142.188 316.437 C 141.973 316.176,140.154 314.636,138.147 313.015 C 105.972 287.034,117.694 226.522,155.727 222.258 C 161.173 221.647,160.691 220.399,153.701 217.014 C 141.725 211.216,136.854 210.256,127.378 211.827 M274.609 211.444 C 270.362 212.329,265.817 213.689,264.063 214.601 C 262.988 215.159,261.659 215.618,261.108 215.620 C 260.558 215.623,259.906 216.150,259.659 216.792 C 259.413 217.434,258.926 217.784,258.578 217.568 C 258.230 217.353,256.813 218.129,255.430 219.293 L 252.916 221.409 259.034 222.442 C 289.415 227.574,303.697 268.481,285.941 299.514 C 279.281 311.154,268.559 319.761,255.078 324.290 C 250.385 325.866,235.573 325.666,231.716 323.974 C 230.039 323.238,228.506 322.796,228.309 322.993 C 227.782 323.520,232.172 334.380,232.764 334.014 C 233.042 333.842,233.321 334.388,233.384 335.226 C 233.447 336.064,234.751 338.213,236.281 340.000 C 237.811 341.788,239.063 343.518,239.063 343.845 C 239.063 345.821,248.783 351.716,254.466 353.187 C 268.561 356.834,287.945 350.730,299.023 339.153 C 300.420 337.694,301.563 336.431,301.563 336.346 C 301.563 336.261,302.907 334.779,304.550 333.052 C 310.722 326.563,318.021 311.772,321.497 298.706 C 324.095 288.942,324.601 260.810,322.247 257.001 C 322.033 256.655,321.511 254.498,321.088 252.209 C 320.211 247.470,314.974 234.375,313.955 234.375 C 313.585 234.375,313.281 233.921,313.281 233.366 C 313.281 230.645,300.583 218.115,294.729 215.061 C 288.652 211.890,279.965 210.329,274.609 211.444 " stroke="none" fill="#ffffff" fill-rule="evenodd"></path><path id="path1" d="M102.445 10.560 C 69.652 19.743,72.477 63.524,106.250 69.543 C 116.921 71.445,120.333 74.506,123.216 84.766 C 136.716 132.806,135.816 145.817,117.969 160.644 C 75.442 195.976,61.307 257.821,83.289 312.381 C 87.862 323.732,95.792 336.935,103.516 346.059 C 107.598 350.882,119.792 362.993,118.103 360.547 C 117.212 359.258,115.187 356.973,113.601 355.469 C 101.268 343.769,88.131 321.583,82.145 302.344 C 74.609 278.122,78.245 248.626,91.521 226.278 C 98.107 215.192,111.582 199.962,117.817 196.556 C 118.545 196.158,120.583 194.661,122.346 193.229 C 124.109 191.797,125.774 190.625,126.045 190.625 C 126.317 190.625,128.258 189.568,130.358 188.275 C 138.199 183.451,152.536 177.914,165.625 174.657 C 193.012 167.841,243.062 170.394,264.453 179.697 C 265.313 180.071,268.606 181.483,271.773 182.836 C 290.530 190.846,309.365 206.811,319.859 223.595 C 326.312 233.915,327.923 237.703,332.585 253.516 C 334.745 260.843,334.869 285.107,332.793 294.254 C 327.530 317.441,316.032 338.308,298.526 356.445 C 296.141 358.916,294.482 360.938,294.839 360.938 C 296.878 360.938,311.881 343.556,318.520 333.500 C 348.497 288.102,346.563 223.038,313.971 180.469 C 307.443 171.942,302.264 166.721,290.935 157.244 C 278.072 146.485,277.281 133.550,287.101 94.531 C 292.398 73.483,293.638 71.923,307.031 69.464 C 330.264 65.200,340.888 41.289,327.901 22.494 C 314.968 3.776,286.694 6.182,276.559 26.864 C 271.124 37.954,272.716 47.885,281.954 60.530 C 289.058 70.254,285.752 82.243,269.023 107.422 C 254.557 129.193,247.305 133.388,231.250 129.269 C 222.621 127.056,189.900 127.053,181.250 129.265 C 162.931 133.949,149.685 122.806,133.122 88.777 C 125.218 72.538,124.893 68.450,130.873 60.529 C 140.743 47.457,141.885 34.629,134.209 23.041 C 127.543 12.978,113.507 7.462,102.445 10.560 M203.320 174.788 C 204.932 174.956,207.568 174.956,209.180 174.788 C 210.791 174.619,209.473 174.481,206.250 174.481 C 203.027 174.481,201.709 174.619,203.320 174.788 M229.883 176.320 C 230.635 176.516,231.865 176.516,232.617 176.320 C 233.369 176.123,232.754 175.963,231.250 175.963 C 229.746 175.963,229.131 176.123,229.883 176.320 M131.445 210.716 C 132.627 210.895,134.561 210.895,135.742 210.716 C 136.924 210.537,135.957 210.390,133.594 210.390 C 131.230 210.390,130.264 210.537,131.445 210.716 M276.758 210.716 C 277.939 210.895,279.873 210.895,281.055 210.716 C 282.236 210.537,281.270 210.390,278.906 210.390 C 276.543 210.390,275.576 210.537,276.758 210.716 M106.611 222.852 L 102.734 226.953 106.836 223.076 C 109.092 220.944,110.938 219.098,110.938 218.975 C 110.938 218.392,110.214 219.040,106.611 222.852 M160.106 220.643 C 160.853 221.542,160.685 221.820,159.225 222.099 C 157.929 222.347,158.170 222.473,160.082 222.550 C 162.694 222.654,162.717 222.628,161.328 221.094 C 159.724 219.322,158.694 218.941,160.106 220.643 M88.463 266.406 C 88.463 267.910,88.623 268.525,88.820 267.773 C 89.016 267.021,89.016 265.791,88.820 265.039 C 88.623 264.287,88.463 264.902,88.463 266.406 M324.432 271.094 C 324.432 273.027,324.584 273.818,324.770 272.852 C 324.956 271.885,324.956 270.303,324.770 269.336 C 324.584 268.369,324.432 269.160,324.432 271.094 M82.294 274.219 C 82.294 277.441,82.432 278.760,82.600 277.148 C 82.769 275.537,82.769 272.900,82.600 271.289 C 82.432 269.678,82.294 270.996,82.294 274.219 M324.442 280.859 C 324.448 283.008,324.600 283.794,324.779 282.606 C 324.959 281.419,324.954 279.661,324.769 278.700 C 324.583 277.739,324.436 278.711,324.442 280.859 M88.478 285.547 C 88.487 287.266,88.647 287.877,88.834 286.905 C 89.021 285.933,89.014 284.527,88.818 283.780 C 88.622 283.033,88.470 283.828,88.478 285.547 M299.585 339.258 L 294.922 344.141 299.805 339.478 C 304.340 335.146,305.045 334.375,304.468 334.375 C 304.347 334.375,302.150 336.572,299.585 339.258 M239.811 345.508 C 241.727 347.549,243.397 349.219,243.522 349.219 C 244.109 349.219,243.488 348.517,240.039 345.280 L 236.328 341.797 239.811 345.508 M115.234 351.563 C 116.913 353.281,118.462 354.688,118.676 354.688 C 118.891 354.688,117.694 353.281,116.016 351.563 C 114.337 349.844,112.788 348.438,112.574 348.438 C 112.359 348.438,113.556 349.844,115.234 351.563 M290.995 358.008 L 285.547 363.672 291.211 358.224 C 296.472 353.164,297.232 352.344,296.659 352.344 C 296.540 352.344,293.991 354.893,290.995 358.008 M146.875 377.694 C 146.875 377.909,147.930 378.630,149.219 379.297 C 150.508 379.963,151.563 380.333,151.563 380.118 C 151.563 379.903,150.508 379.182,149.219 378.516 C 147.930 377.849,146.875 377.479,146.875 377.694 " stroke="none" fill="#a0ecfe" fill-rule="evenodd"></path><path id="path2" d="M295.703 10.156 C 293.712 11.012,295.766 11.012,298.438 10.156 C 300.008 9.653,300.084 9.526,298.828 9.508 C 297.969 9.495,296.563 9.787,295.703 10.156 M308.594 10.111 C 310.098 10.417,312.207 10.900,313.281 11.185 C 314.857 11.603,314.781 11.485,312.891 10.574 C 311.602 9.953,309.492 9.470,308.203 9.500 C 305.920 9.553,305.930 9.569,308.594 10.111 M97.656 11.328 C 95.221 12.720,96.385 12.720,100.000 11.328 C 101.790 10.639,102.195 10.264,101.172 10.243 C 100.313 10.226,98.730 10.714,97.656 11.328 M120.452 11.963 C 127.464 14.934,132.661 19.630,136.178 26.172 C 136.871 27.461,137.452 28.136,137.469 27.673 C 137.640 23.065,125.254 11.863,118.563 10.574 C 116.833 10.241,117.439 10.687,120.452 11.963 M92.947 13.790 C 88.080 17.040,81.235 25.181,81.257 27.692 C 81.261 28.145,82.282 26.741,83.526 24.572 C 85.687 20.806,89.561 16.768,93.757 13.908 C 94.827 13.179,95.518 12.564,95.291 12.541 C 95.064 12.518,94.010 13.080,92.947 13.790 M285.547 14.949 L 283.203 17.308 286.308 15.250 C 290.168 12.691,290.368 12.489,288.997 12.545 C 288.389 12.569,286.836 13.651,285.547 14.949 M320.313 14.814 C 321.387 15.714,322.969 16.816,323.828 17.262 C 324.894 17.816,324.770 17.554,323.438 16.436 C 322.363 15.536,320.781 14.434,319.922 13.988 C 318.856 13.434,318.980 13.696,320.313 14.814 M325.781 18.962 C 325.781 19.810,330.722 26.570,331.080 26.211 C 331.260 26.031,330.425 24.542,329.224 22.903 C 326.358 18.992,325.781 18.332,325.781 18.962 M278.406 22.076 C 275.904 25.867,274.820 28.205,275.327 28.713 C 275.577 28.962,275.781 28.792,275.781 28.334 C 275.781 27.876,276.988 25.708,278.463 23.516 C 279.938 21.324,280.904 19.534,280.611 19.537 C 280.318 19.540,279.326 20.682,278.406 22.076 M331.274 28.125 C 331.274 28.770,331.615 29.824,332.031 30.469 C 332.704 31.510,332.789 31.510,332.789 30.469 C 332.789 29.824,332.448 28.770,332.031 28.125 C 331.358 27.083,331.274 27.083,331.274 28.125 M80.208 29.427 C 79.922 29.714,79.710 30.680,79.737 31.576 C 79.783 33.072,79.847 33.052,80.535 31.332 C 81.300 29.419,81.141 28.494,80.208 29.427 M139.305 39.453 C 139.309 42.031,139.455 42.992,139.629 41.588 C 139.803 40.183,139.799 38.074,139.621 36.900 C 139.442 35.726,139.300 36.875,139.305 39.453 M333.807 40.625 C 333.807 42.559,333.959 43.350,334.145 42.383 C 334.331 41.416,334.331 39.834,334.145 38.867 C 333.959 37.900,333.807 38.691,333.807 40.625 M273.570 44.922 C 273.558 45.781,273.849 47.188,274.219 48.047 C 275.074 50.038,275.074 47.984,274.219 45.313 C 273.716 43.742,273.589 43.666,273.570 44.922 M138.372 46.225 C 138.322 46.942,138.079 48.172,137.832 48.960 C 137.405 50.316,137.429 50.318,138.275 48.999 C 138.766 48.233,139.009 47.003,138.815 46.265 C 138.497 45.055,138.454 45.051,138.372 46.225 M331.679 50.000 C 330.051 55.330,325.006 61.102,317.487 66.240 C 316.678 66.793,317.553 66.441,319.433 65.459 C 325.276 62.404,333.619 51.980,332.603 49.005 C 332.423 48.478,332.008 48.926,331.679 50.000 M80.505 50.234 C 80.444 51.283,82.926 55.731,84.876 58.068 C 85.889 59.282,86.719 59.941,86.719 59.531 C 86.719 59.121,86.165 58.326,85.489 57.764 C 84.812 57.203,83.422 55.138,82.400 53.176 C 81.378 51.215,80.525 49.891,80.505 50.234 M275.000 50.549 C 275.000 51.701,282.235 62.556,282.696 62.095 C 282.898 61.894,282.506 61.111,281.825 60.356 C 281.143 59.602,279.329 56.896,277.793 54.343 C 276.257 51.790,275.000 50.083,275.000 50.549 M133.296 57.031 C 132.158 58.750,131.520 60.156,131.876 60.156 C 132.233 60.156,133.315 58.750,134.281 57.031 C 135.247 55.313,135.886 53.906,135.701 53.906 C 135.515 53.906,134.433 55.313,133.296 57.031 M90.573 63.564 C 91.893 65.207,97.619 68.266,98.231 67.654 C 98.464 67.422,97.681 66.861,96.491 66.409 C 95.301 65.956,93.231 64.818,91.890 63.878 C 90.036 62.579,89.721 62.504,90.573 63.564 M126.775 70.313 C 126.775 72.246,126.928 73.037,127.114 72.070 C 127.300 71.104,127.300 69.521,127.114 68.555 C 126.928 67.588,126.775 68.379,126.775 70.313 M112.477 71.550 C 113.968 72.196,115.814 73.292,116.578 73.984 C 117.343 74.676,117.969 74.901,117.969 74.484 C 117.969 73.569,112.333 70.300,110.831 70.343 C 110.245 70.360,110.986 70.903,112.477 71.550 M295.614 73.621 C 292.950 75.960,290.062 80.948,290.892 81.777 C 291.089 81.975,291.649 80.930,292.135 79.456 C 292.987 76.875,295.741 73.840,298.888 72.013 C 299.714 71.534,299.963 71.131,299.441 71.118 C 298.919 71.104,297.197 72.231,295.614 73.621 M129.688 81.566 C 129.688 82.710,139.876 101.999,141.488 103.906 L 143.138 105.859 141.482 103.125 C 140.572 101.621,137.676 96.172,135.048 91.016 C 130.122 81.353,129.688 80.586,129.688 81.566 M280.616 85.585 C 278.263 90.429,278.525 91.107,280.950 86.447 C 282.033 84.364,282.786 82.526,282.623 82.363 C 282.460 82.199,281.557 83.649,280.616 85.585 M276.172 94.531 C 275.505 95.820,275.136 96.875,275.350 96.875 C 275.565 96.875,276.287 95.820,276.953 94.531 C 277.620 93.242,277.989 92.188,277.775 92.188 C 277.560 92.188,276.838 93.242,276.172 94.531 M273.020 100.195 L 271.781 102.734 273.373 100.781 C 274.906 98.901,275.406 97.656,274.629 97.656 C 274.426 97.656,273.701 98.799,273.020 100.195 M269.791 105.273 C 269.055 106.455,268.080 107.949,267.625 108.594 C 266.941 109.561,267.002 109.606,267.969 108.849 C 269.263 107.837,272.208 103.125,271.547 103.125 C 271.317 103.125,270.528 104.092,269.791 105.273 M143.445 107.227 C 147.454 114.114,156.637 124.682,160.547 126.909 C 162.872 128.233,162.875 128.233,160.938 126.818 C 157.191 124.083,152.412 118.797,148.032 112.546 C 144.246 107.144,141.632 104.112,143.445 107.227 M129.742 114.128 C 129.773 115.166,130.116 116.719,130.505 117.578 C 130.999 118.667,131.069 118.194,130.737 116.016 C 130.185 112.388,129.663 111.398,129.742 114.128 M262.594 115.625 C 261.213 117.344,260.363 118.742,260.705 118.733 C 261.320 118.717,266.018 112.500,265.416 112.500 C 265.245 112.500,263.975 113.906,262.594 115.625 M256.989 122.317 C 253.654 125.768,250.088 128.016,245.840 129.344 C 244.046 129.905,243.300 130.388,244.183 130.416 C 247.446 130.523,254.349 126.302,258.535 121.640 C 261.310 118.550,260.131 119.066,256.989 122.317 M132.213 127.344 C 132.213 128.848,132.373 129.463,132.570 128.711 C 132.766 127.959,132.766 126.729,132.570 125.977 C 132.373 125.225,132.213 125.840,132.213 127.344 M200.623 127.144 C 204.188 127.289,209.813 127.289,213.123 127.143 C 216.433 126.996,213.516 126.878,206.641 126.879 C 199.766 126.880,197.058 126.999,200.623 127.144 M165.234 129.325 C 166.523 129.915,168.105 130.387,168.750 130.374 C 169.395 130.361,168.691 129.876,167.188 129.297 C 163.621 127.923,162.217 127.944,165.234 129.325 M279.922 132.031 C 279.922 134.395,280.068 135.361,280.247 134.180 C 280.426 132.998,280.426 131.064,280.247 129.883 C 280.068 128.701,279.922 129.668,279.922 132.031 M236.328 130.448 C 237.820 131.109,242.801 131.556,242.122 130.968 C 241.943 130.813,240.215 130.477,238.281 130.221 C 235.934 129.911,235.285 129.986,236.328 130.448 M171.289 131.007 C 172.041 131.204,173.271 131.204,174.023 131.007 C 174.775 130.811,174.160 130.650,172.656 130.650 C 171.152 130.650,170.537 130.811,171.289 131.007 M281.720 142.188 C 282.968 147.285,288.538 157.035,289.597 155.976 C 289.804 155.769,289.206 154.831,288.267 153.892 C 287.328 152.953,285.770 150.374,284.806 148.162 C 283.841 145.950,282.645 143.262,282.147 142.188 L 281.242 140.234 281.720 142.188 M126.955 150.488 C 126.135 152.012,122.257 156.001,118.338 159.353 C 111.912 164.850,99.868 177.238,97.328 180.962 C 92.431 188.146,93.305 187.871,98.894 180.469 C 104.267 173.352,112.108 165.271,118.980 159.766 C 124.115 155.652,129.697 148.968,128.771 148.042 C 128.593 147.864,127.776 148.965,126.955 150.488 M290.649 156.793 C 290.662 157.139,292.267 158.623,294.215 160.091 C 296.163 161.559,300.963 165.954,304.882 169.857 C 308.800 173.760,310.719 175.344,309.145 173.378 C 304.963 168.152,290.590 155.264,290.649 156.793 M202.930 170.885 C 204.756 171.049,207.744 171.049,209.570 170.885 C 211.396 170.720,209.902 170.585,206.250 170.585 C 202.598 170.585,201.104 170.720,202.930 170.885 M188.867 171.645 C 189.834 171.831,191.416 171.831,192.383 171.645 C 193.350 171.459,192.559 171.307,190.625 171.307 C 188.691 171.307,187.900 171.459,188.867 171.645 M220.508 171.653 C 221.689 171.832,223.623 171.832,224.805 171.653 C 225.986 171.474,225.020 171.328,222.656 171.328 C 220.293 171.328,219.326 171.474,220.508 171.653 M167.578 174.255 C 166.489 174.749,166.963 174.819,169.141 174.487 C 170.859 174.226,172.412 173.882,172.591 173.724 C 173.262 173.133,169.078 173.576,167.578 174.255 M193.555 174.784 C 194.951 174.957,197.236 174.957,198.633 174.784 C 200.029 174.611,198.887 174.469,196.094 174.469 C 193.301 174.469,192.158 174.611,193.555 174.784 M214.669 174.792 C 216.507 174.957,219.319 174.955,220.919 174.787 C 222.519 174.619,221.016 174.484,217.578 174.487 C 214.141 174.489,212.832 174.627,214.669 174.792 M160.938 175.781 C 159.367 176.284,159.291 176.411,160.547 176.430 C 161.406 176.442,162.813 176.151,163.672 175.781 C 165.663 174.926,163.609 174.926,160.938 175.781 M183.789 175.539 C 184.541 175.735,185.771 175.735,186.523 175.539 C 187.275 175.342,186.660 175.181,185.156 175.181 C 183.652 175.181,183.037 175.342,183.789 175.539 M226.367 175.551 C 227.334 175.738,228.916 175.738,229.883 175.551 C 230.850 175.365,230.059 175.213,228.125 175.213 C 226.191 175.213,225.400 175.365,226.367 175.551 M173.438 176.563 C 172.396 177.236,172.396 177.320,173.438 177.320 C 174.082 177.320,175.137 176.979,175.781 176.563 C 176.823 175.889,176.823 175.805,175.781 175.805 C 175.137 175.805,174.082 176.146,173.438 176.563 M314.889 181.445 C 318.102 185.863,319.521 187.259,318.064 184.570 C 317.657 183.818,316.041 181.797,314.473 180.078 C 311.690 177.029,311.701 177.062,314.889 181.445 M149.609 179.269 C 146.592 180.650,147.996 180.671,151.563 179.297 C 153.066 178.718,153.770 178.233,153.125 178.220 C 152.480 178.206,150.898 178.678,149.609 179.269 M266.406 184.766 C 267.480 185.380,268.711 185.882,269.141 185.882 C 269.570 185.882,269.043 185.380,267.969 184.766 C 266.895 184.152,265.664 183.649,265.234 183.649 C 264.805 183.649,265.332 184.152,266.406 184.766 M134.180 185.991 C 132.568 186.841,131.250 187.712,131.250 187.925 C 131.250 188.138,132.656 187.596,134.375 186.719 C 136.094 185.842,137.500 184.956,137.500 184.750 C 137.500 184.239,137.495 184.241,134.180 185.991 M319.700 188.281 C 320.324 189.355,321.811 191.913,323.003 193.964 C 324.195 196.015,326.712 201.113,328.597 205.292 C 330.482 209.471,332.025 212.388,332.027 211.774 C 332.033 210.129,322.226 190.559,320.255 188.281 L 318.565 186.328 319.700 188.281 M91.855 188.969 C 90.170 191.695,85.877 200.236,86.506 199.609 C 87.606 198.514,93.194 188.281,92.691 188.281 C 92.465 188.281,92.088 188.591,91.855 188.969 M127.531 189.795 C 126.130 190.578,123.845 192.142,122.453 193.271 C 121.000 194.450,122.168 193.954,125.195 192.106 C 128.096 190.336,130.469 188.751,130.469 188.585 C 130.469 188.163,130.395 188.194,127.531 189.795 M286.328 191.030 C 287.188 191.729,288.594 192.647,289.453 193.069 L 291.016 193.836 289.453 192.564 C 288.594 191.864,287.188 190.947,286.328 190.525 L 284.766 189.758 286.328 191.030 M128.016 193.796 L 126.172 195.405 128.516 194.033 C 131.600 192.227,131.646 192.188,130.686 192.188 C 130.232 192.188,129.031 192.911,128.016 193.796 M289.063 196.825 C 294.917 201.715,297.005 203.255,297.333 202.927 C 297.534 202.727,295.843 201.173,293.575 199.474 C 288.967 196.021,286.051 194.309,289.063 196.825 M115.864 198.119 L 113.672 200.143 116.211 198.456 C 118.537 196.910,119.294 196.094,118.403 196.094 C 118.212 196.094,117.069 197.005,115.864 198.119 M118.750 200.111 C 114.976 203.242,110.040 207.957,110.292 208.188 C 110.432 208.316,112.992 206.175,115.979 203.430 C 121.240 198.595,122.739 196.800,118.750 200.111 M298.139 200.431 C 297.849 201.189,297.994 201.446,298.528 201.116 C 299.002 200.823,302.205 203.318,305.745 206.740 L 312.109 212.890 305.486 206.055 C 297.924 198.250,298.737 198.873,298.139 200.431 M106.986 206.055 C 104.625 208.525,101.999 211.445,101.151 212.542 C 100.303 213.640,101.077 212.937,102.872 210.980 C 104.666 209.023,107.612 206.104,109.417 204.492 C 111.223 202.881,112.381 201.563,111.990 201.563 C 111.599 201.563,109.347 203.584,106.986 206.055 M303.509 209.375 C 306.464 212.598,309.558 215.937,310.385 216.797 L 311.888 218.359 310.954 216.797 C 310.440 215.937,307.346 212.598,304.079 209.375 L 298.137 203.516 303.509 209.375 M82.158 208.237 C 80.849 211.109,81.099 211.722,82.514 209.111 C 83.175 207.891,83.570 206.747,83.391 206.568 C 83.212 206.390,82.658 207.140,82.158 208.237 M108.203 209.980 C 107.773 210.299,106.546 211.612,105.476 212.897 C 103.730 214.994,103.831 214.958,106.453 212.542 C 109.099 210.104,109.749 209.352,109.180 209.387 C 109.072 209.394,108.633 209.660,108.203 209.980 M141.471 211.999 C 141.650 212.154,142.852 212.516,144.141 212.804 C 145.852 213.187,146.168 213.115,145.313 212.536 C 144.258 211.822,140.687 211.323,141.471 211.999 M267.578 212.500 C 266.593 212.923,266.449 213.171,267.188 213.171 C 267.832 213.171,269.063 212.869,269.922 212.500 C 270.907 212.077,271.051 211.829,270.313 211.829 C 269.668 211.829,268.438 212.131,267.578 212.500 M79.774 214.931 C 79.293 216.311,79.036 217.578,79.203 217.745 C 79.370 217.912,79.901 216.919,80.382 215.538 C 80.863 214.158,81.120 212.891,80.953 212.724 C 80.786 212.557,80.256 213.550,79.774 214.931 M147.305 213.975 C 147.713 214.356,148.926 214.898,150.000 215.179 L 151.953 215.690 150.000 214.513 C 147.823 213.202,146.111 212.860,147.305 213.975 M262.891 214.481 C 260.928 215.426,260.864 215.533,262.500 215.139 C 263.574 214.880,264.787 214.356,265.195 213.975 C 266.208 213.029,265.652 213.151,262.891 214.481 M313.976 216.211 C 315.385 218.037,316.696 219.531,316.890 219.531 C 317.651 219.531,315.655 216.695,313.591 214.844 C 311.581 213.040,311.611 213.145,313.976 216.211 M115.820 215.715 C 112.295 217.973,112.622 218.493,116.211 216.334 C 119.843 214.150,119.958 214.059,119.076 214.076 C 118.682 214.083,117.217 214.821,115.820 215.715 M107.353 222.852 C 104.761 225.537,102.151 228.437,101.553 229.297 C 100.612 230.646,103.600 227.658,110.878 219.970 C 111.920 218.869,112.613 217.969,112.418 217.969 C 112.224 217.969,109.944 220.166,107.353 222.852 M253.125 220.313 C 252.051 221.153,251.557 221.848,252.027 221.858 C 252.498 221.867,253.519 221.172,254.297 220.313 C 256.078 218.344,255.641 218.344,253.125 220.313 M302.378 219.635 C 302.359 219.906,303.662 221.523,305.273 223.227 C 306.885 224.931,308.783 227.170,309.491 228.202 C 310.200 229.234,310.996 229.868,311.260 229.611 C 311.525 229.354,309.642 226.893,307.077 224.142 C 304.512 221.391,302.397 219.363,302.378 219.635 M98.637 221.289 C 97.532 222.685,95.976 225.781,96.380 225.781 C 96.567 225.781,97.447 224.551,98.334 223.047 C 99.946 220.314,100.096 219.446,98.637 221.289 M334.485 221.094 C 334.485 221.738,334.787 222.969,335.156 223.828 C 335.579 224.813,335.828 224.957,335.828 224.219 C 335.828 223.574,335.526 222.344,335.156 221.484 C 334.733 220.500,334.485 220.355,334.485 221.094 M322.815 229.635 C 323.788 231.325,324.718 232.574,324.881 232.411 C 325.218 232.073,321.936 226.563,321.397 226.563 C 321.205 226.563,321.843 227.945,322.815 229.635 M93.110 229.908 C 92.125 231.095,90.507 235.156,91.019 235.156 C 91.215 235.156,92.092 233.750,92.969 232.031 C 94.580 228.873,94.633 228.073,93.110 229.908 M325.912 235.977 C 326.369 237.288,326.888 238.216,327.065 238.039 C 327.452 237.652,325.978 233.594,325.451 233.594 C 325.247 233.594,325.455 234.666,325.912 235.977 M316.462 238.672 C 316.462 239.102,316.964 240.332,317.578 241.406 C 318.192 242.480,318.695 243.008,318.695 242.578 C 318.695 242.148,318.192 240.918,317.578 239.844 C 316.964 238.770,316.462 238.242,316.462 238.672 M325.123 242.578 C 325.121 243.008,325.593 244.590,326.172 246.094 C 326.751 247.598,327.236 248.301,327.249 247.656 C 327.262 247.012,326.790 245.430,326.200 244.141 C 325.610 242.852,325.125 242.148,325.123 242.578 M339.275 246.875 C 339.275 248.809,339.428 249.600,339.614 248.633 C 339.800 247.666,339.800 246.084,339.614 245.117 C 339.428 244.150,339.275 244.941,339.275 246.875 M72.978 260.938 C 72.978 268.457,73.095 271.533,73.238 267.773 C 73.381 264.014,73.381 257.861,73.238 254.102 C 73.095 250.342,72.978 253.418,72.978 260.938 M321.227 252.734 C 321.214 253.594,321.506 255.000,321.875 255.859 C 322.730 257.850,322.730 255.796,321.875 253.125 C 321.372 251.555,321.245 251.478,321.227 252.734 M90.278 255.903 C 89.984 257.471,89.899 258.910,90.090 259.101 C 90.281 259.292,90.678 258.165,90.972 256.597 C 91.266 255.029,91.351 253.590,91.160 253.399 C 90.969 253.208,90.572 254.335,90.278 255.903 M89.275 263.281 C 89.275 265.215,89.428 266.006,89.614 265.039 C 89.800 264.072,89.800 262.490,89.614 261.523 C 89.428 260.557,89.275 261.348,89.275 263.281 M333.400 261.523 C 333.243 261.846,333.352 263.340,333.642 264.844 L 334.169 267.578 334.272 264.258 C 334.369 261.142,334.059 260.171,333.400 261.523 M82.244 265.625 C 82.244 267.559,82.396 268.350,82.583 267.383 C 82.769 266.416,82.769 264.834,82.583 263.867 C 82.396 262.900,82.244 263.691,82.244 265.625 M323.229 265.820 C 323.790 270.219,324.219 270.549,324.219 266.583 C 324.219 264.818,323.901 263.177,323.512 262.937 C 323.108 262.687,322.987 263.926,323.229 265.820 M78.417 273.828 C 78.419 278.555,78.548 280.388,78.703 277.901 C 78.859 275.415,78.857 271.548,78.700 269.307 C 78.543 267.067,78.415 269.102,78.417 273.828 M330.758 274.219 C 330.758 278.730,330.887 280.576,331.045 278.320 C 331.203 276.064,331.203 272.373,331.045 270.117 C 330.887 267.861,330.758 269.707,330.758 274.219 M88.563 275.781 C 88.563 279.863,88.695 281.533,88.855 279.492 C 89.016 277.451,89.016 274.111,88.855 272.070 C 88.695 270.029,88.563 271.699,88.563 275.781 M339.305 273.047 C 339.309 275.625,339.455 276.586,339.629 275.181 C 339.803 273.777,339.799 271.668,339.621 270.494 C 339.442 269.320,339.300 270.469,339.305 273.047 M82.255 283.203 C 82.261 285.352,82.412 286.138,82.592 284.950 C 82.771 283.763,82.767 282.005,82.581 281.044 C 82.396 280.083,82.249 281.055,82.255 283.203 M333.730 284.082 C 333.655 285.854,333.419 288.491,333.206 289.941 L 332.818 292.578 333.638 289.966 C 334.089 288.529,334.325 285.892,334.162 284.106 L 333.867 280.859 333.730 284.082 M323.635 285.547 C 323.643 287.266,323.803 287.877,323.990 286.905 C 324.177 285.933,324.170 284.527,323.974 283.780 C 323.779 283.033,323.626 283.828,323.635 285.547 M78.906 287.109 C 78.906 288.184,79.209 289.063,79.579 289.063 C 79.949 289.063,80.084 288.184,79.879 287.109 C 79.673 286.035,79.371 285.156,79.206 285.156 C 79.041 285.156,78.906 286.035,78.906 287.109 M90.000 293.359 C 90.000 294.219,90.281 295.801,90.625 296.875 C 91.120 298.422,91.250 298.503,91.250 297.266 C 91.250 296.406,90.969 294.824,90.625 293.750 C 90.130 292.203,90.000 292.122,90.000 293.359 M325.938 304.453 C 324.781 308.220,325.341 308.780,326.563 305.078 C 327.078 303.517,327.348 302.087,327.162 301.901 C 326.976 301.716,326.425 302.864,325.938 304.453 M82.922 304.688 C 82.922 305.332,83.224 306.563,83.594 307.422 C 84.017 308.407,84.265 308.551,84.265 307.813 C 84.265 307.168,83.963 305.938,83.594 305.078 C 83.171 304.093,82.922 303.949,82.922 304.688 M332.122 305.210 C 332.072 305.712,331.804 306.766,331.526 307.553 C 331.133 308.664,331.237 308.784,331.990 308.091 C 332.523 307.599,332.791 306.545,332.586 305.747 C 332.380 304.949,332.172 304.708,332.122 305.210 M132.813 308.057 C 132.813 308.191,133.955 309.334,135.352 310.596 L 137.891 312.891 135.596 310.352 C 133.457 307.985,132.813 307.453,132.813 308.057 M82.479 311.719 C 82.766 312.793,83.327 314.199,83.726 314.844 C 84.229 315.658,84.290 315.420,83.927 314.063 C 83.640 312.988,83.079 311.582,82.681 310.938 C 82.177 310.123,82.116 310.361,82.479 311.719 M322.450 314.054 C 321.773 315.777,321.385 317.188,321.587 317.188 C 322.116 317.188,324.372 311.611,323.996 311.235 C 323.823 311.062,323.127 312.331,322.450 314.054 M328.252 315.268 C 326.943 318.141,327.193 318.754,328.608 316.142 C 329.269 314.922,329.664 313.778,329.485 313.600 C 329.306 313.421,328.751 314.172,328.252 315.268 M100.007 321.484 C 102.740 326.137,103.909 327.780,103.881 326.932 C 103.868 326.514,103.352 325.505,102.735 324.690 C 102.117 323.874,101.713 322.995,101.835 322.736 C 101.958 322.478,101.183 321.387,100.114 320.313 L 98.171 318.359 100.007 321.484 M93.385 328.711 C 94.554 330.752,96.021 332.949,96.644 333.594 C 97.268 334.238,96.479 332.568,94.891 329.883 C 93.304 327.197,91.837 325.000,91.631 325.000 C 91.426 325.000,92.215 326.670,93.385 328.711 M95.586 325.924 C 95.677 326.544,96.748 328.260,97.965 329.737 L 100.178 332.422 98.401 329.297 C 96.224 325.466,95.369 324.442,95.586 325.924 M91.885 330.664 C 94.418 334.998,99.393 342.202,100.190 342.691 C 100.730 343.022,100.562 342.429,99.816 341.373 C 99.070 340.317,97.000 337.256,95.215 334.570 C 93.430 331.885,91.822 329.688,91.642 329.688 C 91.462 329.688,91.571 330.127,91.885 330.664 M319.749 331.445 C 318.222 333.420,317.701 334.633,318.625 334.062 C 319.550 333.490,321.401 330.469,320.826 330.469 C 320.649 330.469,320.164 330.908,319.749 331.445 M107.855 333.398 C 112.472 338.683,115.391 341.650,117.390 343.093 C 118.576 343.948,116.906 341.974,113.679 338.705 C 110.453 335.436,107.813 332.421,107.813 332.006 C 107.813 331.590,107.400 331.250,106.895 331.250 C 106.390 331.250,106.822 332.217,107.855 333.398 M303.621 334.049 C 302.390 335.132,301.536 336.172,301.725 336.360 C 301.913 336.548,303.074 335.651,304.305 334.367 C 307.024 331.529,306.673 331.365,303.621 334.049 M102.344 336.901 C 102.988 337.485,104.021 338.473,104.639 339.098 C 105.518 339.986,105.503 339.817,104.572 338.324 C 103.918 337.273,102.885 336.285,102.277 336.127 C 101.382 335.894,101.395 336.042,102.344 336.901 M177.127 339.143 C 175.957 340.476,175.000 341.838,175.000 342.168 C 175.000 342.843,169.403 348.085,166.406 350.218 C 164.490 351.581,164.489 351.591,166.324 350.716 C 169.027 349.427,174.236 344.445,177.212 340.301 C 180.196 336.146,180.162 335.684,177.127 339.143 M307.810 339.258 C 306.660 340.829,306.471 341.375,307.315 340.689 C 308.596 339.649,310.533 336.719,309.940 336.719 C 309.791 336.719,308.832 337.861,307.810 339.258 M314.014 340.015 C 310.651 344.455,309.949 345.780,312.450 342.969 C 314.817 340.307,316.737 337.500,316.190 337.500 C 316.041 337.500,315.062 338.632,314.014 340.015 M236.279 340.882 C 237.482 342.459,238.625 343.750,238.818 343.750 C 239.361 343.750,235.978 339.180,234.978 338.562 C 234.490 338.260,235.076 339.304,236.279 340.882 M308.935 343.493 C 307.732 345.071,307.147 346.115,307.634 345.813 C 308.635 345.195,312.017 340.625,311.474 340.625 C 311.281 340.625,310.139 341.916,308.935 343.493 M101.563 344.324 C 101.565 345.164,105.407 349.541,105.799 349.149 C 105.976 348.972,105.095 347.679,103.842 346.276 C 102.588 344.873,101.563 343.995,101.563 344.324 M108.527 349.802 C 110.360 352.057,112.180 354.099,112.571 354.341 C 112.962 354.582,113.281 355.184,113.281 355.678 C 113.281 356.171,111.699 355.023,109.766 353.125 C 107.832 351.227,106.250 349.923,106.250 350.227 C 106.250 351.203,117.278 361.336,118.096 361.110 C 118.530 360.991,119.057 361.518,119.269 362.282 C 119.480 363.047,121.207 364.825,123.107 366.235 C 128.559 370.281,129.487 370.130,124.919 365.940 C 122.622 363.833,120.266 361.667,119.683 361.126 C 119.101 360.585,118.355 360.308,118.025 360.512 C 117.696 360.715,116.428 359.840,115.208 358.566 C 112.610 355.855,113.441 355.450,116.354 358.008 C 117.455 358.975,116.097 357.305,113.335 354.297 C 106.096 346.411,104.733 345.137,108.527 349.802 M306.680 349.179 C 305.023 350.876,303.389 352.194,303.048 352.109 C 302.708 352.023,298.412 355.902,293.501 360.727 C 288.590 365.553,284.967 369.274,285.450 368.995 C 288.492 367.240,296.028 360.674,295.881 359.908 C 295.783 359.400,296.271 359.077,296.966 359.190 C 297.661 359.303,298.671 358.864,299.210 358.213 C 300.001 357.260,299.993 357.031,299.168 357.031 C 298.594 357.031,299.118 356.015,300.364 354.715 C 301.584 353.441,302.883 352.585,303.251 352.812 C 303.618 353.039,304.355 352.744,304.889 352.156 C 305.423 351.569,306.892 349.964,308.154 348.591 C 311.419 345.037,310.280 345.492,306.680 349.179 M242.904 347.940 C 243.945 349.221,246.875 351.158,246.875 350.565 C 246.875 350.416,245.732 349.457,244.336 348.435 C 242.765 347.285,242.219 347.096,242.904 347.940 M126.953 349.219 C 128.242 350.072,129.648 350.772,130.078 350.773 C 130.508 350.774,129.708 350.074,128.301 349.216 C 124.985 347.194,123.899 347.196,126.953 349.219 M298.779 350.195 L 296.484 352.734 299.023 350.440 C 301.390 348.301,301.922 347.656,301.318 347.656 C 301.184 347.656,300.041 348.799,298.779 350.195 M114.063 350.996 C 114.063 351.114,116.787 353.839,120.117 357.051 L 126.172 362.891 120.332 356.836 C 114.908 351.212,114.063 350.425,114.063 350.996 M250.391 352.763 C 251.680 353.353,253.437 353.828,254.297 353.819 C 255.156 353.809,254.277 353.303,252.344 352.694 C 248.006 351.327,247.309 351.352,250.391 352.763 M265.820 354.445 C 266.572 354.641,267.803 354.641,268.555 354.445 C 269.307 354.248,268.691 354.088,267.188 354.088 C 265.684 354.088,265.068 354.248,265.820 354.445 M128.361 365.126 C 129.564 366.260,130.750 367.188,130.995 367.188 C 131.809 367.188,129.453 364.773,127.799 363.911 C 126.633 363.304,126.793 363.649,128.361 365.126 M272.034 373.773 C 268.122 376.538,268.017 376.927,271.680 375.080 C 273.506 374.159,275.000 373.061,275.000 372.640 C 275.000 371.657,275.058 371.635,272.034 373.773 M139.063 372.943 C 139.063 373.542,144.639 377.497,144.989 377.146 C 145.184 376.951,143.931 375.856,142.203 374.713 C 140.476 373.569,139.063 372.773,139.063 372.943 M265.234 378.125 C 263.945 378.979,263.345 379.680,263.900 379.682 C 264.455 379.685,265.664 378.984,266.586 378.125 C 268.714 376.143,268.227 376.143,265.234 378.125 M202.539 393.546 C 205.010 393.701,209.053 393.701,211.523 393.546 C 213.994 393.391,211.973 393.264,207.031 393.264 C 202.090 393.264,200.068 393.391,202.539 393.546 " stroke="none" fill="#d2fcff" fill-rule="evenodd"></path><path id="path3" d="M151.264 223.525 C 125.174 229.650,111.776 266.489,125.299 294.922 C 135.872 317.153,162.207 330.510,181.250 323.301 C 186.291 321.392,186.619 320.957,187.931 314.434 C 194.098 283.779,185.287 247.687,166.431 226.367 C 162.858 222.328,159.246 221.651,151.264 223.525 M247.178 225.906 C 228.240 245.893,218.493 285.690,225.222 315.558 C 228.675 330.889,259.087 327.830,276.796 310.372 C 306.310 281.277,293.177 224.861,256.422 222.846 L 250.391 222.515 247.178 225.906 " stroke="none" fill="#132051" fill-rule="evenodd"></path><path id="path4" d="M183.594 176.148 C 76.337 188.702,47.022 301.237,133.594 368.090 C 195.729 416.074,285.362 391.825,320.396 317.554 C 358.457 236.865,287.905 163.939,183.594 176.148 M146.156 212.521 C 171.987 221.223,191.138 258.491,189.621 297.104 C 189.210 307.565,187.373 320.116,186.115 321.058 C 185.803 321.293,185.446 322.446,185.324 323.622 C 184.699 329.603,176.313 343.550,170.585 348.135 C 154.767 360.795,128.678 355.889,110.891 336.910 C 66.178 289.202,92.995 194.612,146.156 212.521 M285.599 211.005 C 325.796 218.362,338.492 288.771,307.222 330.926 C 289.446 354.891,258.573 362.552,241.529 347.228 C 235.598 341.895,228.760 330.297,226.984 322.557 C 226.750 321.537,226.004 318.418,225.326 315.625 C 223.425 307.796,222.954 285.754,224.481 276.129 C 231.121 234.284,257.751 205.908,285.599 211.005 M252.539 222.414 C 253.291 222.610,254.521 222.610,255.273 222.414 C 256.025 222.217,255.410 222.056,253.906 222.056 C 252.402 222.056,251.787 222.217,252.539 222.414 M242.001 325.553 C 242.973 325.739,244.379 325.732,245.126 325.537 C 245.873 325.341,245.078 325.188,243.359 325.197 C 241.641 325.206,241.029 325.366,242.001 325.553 " stroke="none" fill="#1ba4e3" fill-rule="evenodd"></path></g></svg>