<?xml version="1.0" encoding="UTF-8"?>
<svg width="278px" height="240px" viewBox="0 0 278 240" version="1.1" xmlns="http://www.w3.org/2000/svg" xmlns:xlink="http://www.w3.org/1999/xlink">
    <!-- Generator: Sketch 43.2 (39069) - http://www.bohemiancoding.com/sketch -->
    <title>ardor</title>
    <desc>Created with Sketch.</desc>
    <defs></defs>
    <g id="Page-1" stroke="none" stroke-width="1" fill="none" fill-rule="evenodd">
        <g id="ardor">
            <path d="M164.917,121.215 C146.996,130.936 132.333,139.119 132.333,139.399 C132.333,139.679 150.741,162.367 173.24,189.818 L214.146,239.728 L245.756,239.728 L277.365,239.728 L276.151,237.63 C271.501,229.592 198.488,104.994 198.051,104.35 C197.568,103.639 193.515,105.702 164.917,121.215" id="path2" fill="#918F8F"></path>
            <path d="M70.834,117.099 C34.042,181.374 3.203,235.259 2.305,236.845 L0.671,239.728 L34.923,239.728 L69.174,239.728 L120.133,152.155 C148.161,103.99 171.565,63.712 172.143,62.649 L173.194,60.716 L155.804,30.84 C146.24,14.407 138.26,0.8 138.072,0.6 C137.884,0.4 107.627,52.825 70.834,117.099 M129.951,143.801 C127.832,147.38 75.285,237.817 74.888,238.569 C74.524,239.256 86.315,232.654 108.268,219.879 C126.936,209.015 147.386,197.121 153.713,193.447 C164.041,187.449 165.146,186.685 164.528,185.964 C164.15,185.522 156.769,176.383 148.125,165.654 C139.481,154.926 131.905,145.536 131.29,144.788 C130.675,144.04 130.073,143.596 129.951,143.801" id="path4" fill="#1B649F"></path>
        </g>
    </g>
</svg>