<svg id="svg" version="1.1" width="500" height="500" xmlns="http://www.w3.org/2000/svg" xmlns:xlink="http://www.w3.org/1999/xlink" style="display: block;"><g id="svgg"><path id="path0" d="M79.691 342.176 C 79.374 342.492,77.623 342.851,75.800 342.974 C 69.548 343.392,70.504 344.800,77.040 344.800 C 80.613 344.800,83.200 344.464,83.200 344.000 C 83.200 343.560,82.639 343.200,81.953 343.200 C 81.267 343.200,80.928 342.840,81.200 342.400 C 81.765 341.485,80.560 341.306,79.691 342.176 M105.600 343.934 C 105.600 344.338,108.075 344.788,111.100 344.934 C 115.256 345.135,116.506 344.955,116.215 344.200 C 115.762 343.026,105.600 342.771,105.600 343.934 M372.800 344.000 C 372.800 344.452,375.082 344.800,378.047 344.800 C 381.342 344.800,383.110 344.502,382.800 344.000 C 382.528 343.560,380.167 343.200,377.553 343.200 C 374.918 343.200,372.800 343.556,372.800 344.000 M150.685 346.805 C 150.748 347.902,151.070 348.799,151.400 348.799 C 152.247 348.800,152.149 345.787,151.285 345.253 C 150.892 345.009,150.622 345.708,150.685 346.805 M301.308 356.393 C 301.570 357.075,301.216 357.798,300.483 358.079 C 299.777 358.350,299.200 358.896,299.200 359.292 C 299.200 359.689,299.920 359.564,300.800 359.014 C 302.429 357.997,303.034 355.200,301.625 355.200 C 301.199 355.200,301.056 355.737,301.308 356.393 M188.056 358.200 C 188.276 360.546,189.491 361.853,189.544 359.800 C 189.575 358.590,189.240 357.600,188.800 357.600 C 188.360 357.600,188.025 357.870,188.056 358.200 M315.733 366.933 C 315.440 367.227,315.223 368.217,315.251 369.133 C 315.297 370.666,315.363 370.646,316.068 368.884 C 316.851 366.925,316.689 365.978,315.733 366.933 M317.972 379.800 C 318.670 381.230,319.412 382.400,319.621 382.400 C 320.416 382.400,319.904 381.126,318.334 379.200 L 316.704 377.200 317.972 379.800 M230.859 383.734 C 230.578 384.467,230.719 385.439,231.174 385.894 C 231.742 386.462,232.000 386.046,232.000 384.560 C 232.000 382.092,231.600 381.803,230.859 383.734 " stroke="none" fill="#000000" fill-rule="evenodd"></path><path id="path1" d="M33.200 326.663 C 29.848 327.959,28.855 329.478,28.825 333.353 C 28.811 335.197,28.440 336.928,28.000 337.200 C 27.560 337.472,27.200 338.912,27.200 340.400 C 27.200 341.888,26.840 343.328,26.400 343.600 C 25.960 343.872,25.600 345.038,25.600 346.190 C 25.600 347.343,25.264 349.392,24.854 350.743 C 23.757 354.357,22.589 359.025,21.535 364.000 C 21.023 366.420,20.317 369.120,19.966 370.000 C 17.579 375.983,17.485 384.327,19.800 384.656 C 20.790 384.796,21.600 385.246,21.600 385.656 C 21.600 387.350,42.821 386.522,46.244 384.694 C 51.714 381.775,58.400 374.163,58.400 370.856 C 58.400 370.165,58.760 369.600,59.200 369.600 C 59.683 369.600,60.000 366.267,60.000 361.200 C 60.000 356.133,59.683 352.800,59.200 352.800 C 58.760 352.800,58.400 352.248,58.400 351.573 C 58.400 350.006,53.230 344.800,51.674 344.800 C 51.025 344.800,50.272 344.440,50.000 344.000 C 49.728 343.560,47.727 343.200,45.553 343.200 C 41.635 343.200,39.685 340.478,42.400 338.800 C 42.840 338.528,43.200 337.139,43.200 335.713 C 43.200 334.287,43.586 332.734,44.058 332.262 C 44.530 331.790,44.800 330.188,44.658 328.702 C 44.367 325.657,38.499 324.613,33.200 326.663 M76.427 326.561 C 71.562 329.382,69.106 337.340,72.200 340.257 C 73.932 341.890,78.653 343.267,79.527 342.393 C 79.963 341.957,80.968 341.600,81.760 341.600 C 82.552 341.600,83.200 341.264,83.200 340.854 C 83.200 340.444,83.920 339.879,84.800 339.600 C 85.680 339.321,86.400 338.418,86.400 337.593 C 86.400 336.769,86.760 335.872,87.200 335.600 C 87.640 335.328,88.000 334.047,88.000 332.753 C 88.000 331.459,87.640 330.400,87.200 330.400 C 86.760 330.400,86.398 329.950,86.395 329.400 C 86.382 326.761,79.474 324.794,76.427 326.561 M102.000 332.800 C 101.728 333.240,99.817 333.611,97.753 333.625 C 93.112 333.657,91.200 335.007,91.200 338.251 C 91.200 339.611,90.874 341.552,90.476 342.562 C 90.078 343.573,89.321 346.560,88.793 349.200 C 88.265 351.840,87.535 354.720,87.171 355.600 C 86.807 356.480,86.327 358.280,86.104 359.600 C 85.881 360.920,85.332 363.620,84.884 365.600 C 81.349 381.228,85.101 386.413,99.923 386.382 C 110.409 386.360,112.842 385.166,111.316 380.790 C 110.812 379.344,110.400 377.315,110.400 376.281 C 110.400 374.497,110.128 374.400,105.143 374.400 C 99.519 374.400,96.422 372.858,98.291 370.989 C 98.791 370.489,99.200 368.733,99.200 367.087 C 99.200 365.441,99.560 363.872,100.000 363.600 C 100.440 363.328,100.800 361.687,100.800 359.953 L 100.800 356.800 106.676 356.800 C 113.161 356.800,114.522 356.003,115.553 351.600 C 117.023 345.324,116.954 345.224,111.000 344.963 L 105.600 344.727 105.600 341.953 C 105.600 340.427,106.013 338.518,106.517 337.710 C 107.975 335.375,106.742 332.000,104.432 332.000 C 103.366 332.000,102.272 332.360,102.000 332.800 M369.600 332.800 C 368.940 333.227,366.731 333.581,364.692 333.588 L 360.984 333.600 359.692 337.550 C 358.981 339.723,358.400 342.402,358.400 343.503 C 358.400 344.604,358.080 345.703,357.688 345.945 C 357.297 346.187,356.777 347.559,356.533 348.993 C 355.985 352.208,354.785 357.635,353.568 362.400 C 351.878 369.012,351.661 379.547,353.182 381.068 C 353.915 381.801,354.283 382.400,354.000 382.400 C 353.717 382.400,354.026 382.940,354.686 383.600 C 355.346 384.260,356.271 384.800,356.743 384.800 C 357.214 384.800,357.600 385.160,357.600 385.600 C 357.600 386.089,361.250 386.390,367.000 386.375 C 378.208 386.344,379.200 385.873,379.200 380.577 C 379.200 374.584,378.994 374.400,372.314 374.400 L 366.400 374.400 366.400 371.247 C 366.400 369.513,366.760 367.872,367.200 367.600 C 367.640 367.328,368.000 365.687,368.000 363.953 C 368.000 362.219,368.360 360.800,368.800 360.800 C 369.240 360.800,369.600 359.900,369.600 358.800 C 369.600 356.878,369.797 356.800,374.649 356.800 C 381.474 356.800,383.200 355.260,383.200 349.169 L 383.200 344.800 378.000 344.800 C 372.748 344.800,371.218 343.553,373.536 341.160 C 374.179 340.496,374.705 335.937,374.478 333.000 C 374.386 331.819,371.313 331.693,369.600 332.800 M132.000 344.000 C 131.340 344.427,129.990 344.781,129.000 344.788 C 128.010 344.794,127.200 345.160,127.200 345.600 C 127.200 346.040,126.660 346.400,126.000 346.400 C 125.340 346.400,124.800 346.760,124.800 347.200 C 124.800 347.640,124.456 348.000,124.036 348.000 C 122.251 348.000,116.800 354.909,116.800 357.172 C 116.800 357.847,116.440 358.400,116.000 358.400 C 115.560 358.400,115.200 359.459,115.200 360.753 C 115.200 362.047,114.840 363.328,114.400 363.600 C 113.960 363.872,113.600 366.413,113.600 369.247 C 113.600 372.149,113.949 374.400,114.400 374.400 C 114.840 374.400,115.200 375.300,115.200 376.400 C 115.200 377.500,115.560 378.400,116.000 378.400 C 116.440 378.400,116.800 378.956,116.800 379.636 C 116.800 381.237,120.363 384.800,121.964 384.800 C 122.644 384.800,123.200 385.160,123.200 385.600 C 123.200 386.089,126.952 386.400,132.857 386.400 C 144.531 386.400,144.990 386.128,144.640 379.417 L 144.400 374.800 137.709 374.566 C 129.572 374.282,128.800 373.682,128.800 367.646 C 128.800 361.941,130.100 359.451,134.572 356.590 C 136.897 355.102,143.200 354.671,143.200 356.000 C 143.200 357.229,146.881 356.949,147.969 355.637 C 151.240 351.696,151.460 344.800,148.314 344.800 C 147.261 344.800,146.400 344.440,146.400 344.000 C 146.400 342.963,133.605 342.963,132.000 344.000 M164.800 343.954 C 164.140 344.317,162.520 345.106,161.200 345.707 C 156.083 348.037,149.600 356.651,149.600 361.121 C 149.600 362.212,149.240 363.328,148.800 363.600 C 148.360 363.872,148.000 366.593,148.000 369.647 C 148.000 372.816,148.344 375.200,148.800 375.200 C 149.240 375.200,149.600 376.280,149.600 377.600 C 149.600 378.920,149.960 380.000,150.400 380.000 C 150.840 380.000,151.200 380.460,151.200 381.022 C 151.200 382.089,152.911 383.700,155.849 385.400 C 157.734 386.490,174.400 386.845,174.400 385.795 C 174.400 385.463,175.412 384.742,176.650 384.195 C 180.144 382.648,184.800 377.733,184.800 375.591 C 184.800 374.936,185.160 374.400,185.600 374.400 C 186.040 374.400,186.400 373.701,186.400 372.847 C 186.400 371.993,186.760 371.072,187.200 370.800 C 187.640 370.528,188.000 368.527,188.000 366.353 C 188.000 364.179,188.351 362.400,188.780 362.400 C 189.287 362.400,189.287 361.681,188.780 360.348 C 188.351 359.219,188.000 356.879,188.000 355.148 C 188.000 353.417,187.640 352.000,187.200 352.000 C 186.760 352.000,186.400 351.652,186.400 351.227 C 186.400 349.828,181.241 344.800,179.806 344.800 C 179.032 344.800,178.400 344.440,178.400 344.000 C 178.400 343.036,166.542 342.996,164.800 343.954 M206.000 344.000 C 205.728 344.440,204.357 344.811,202.953 344.825 C 199.027 344.865,196.000 348.858,196.000 354.000 C 196.000 354.818,195.664 356.592,195.254 357.943 C 194.516 360.375,193.405 364.610,191.880 370.800 C 191.446 372.560,190.779 375.080,190.397 376.400 C 190.015 377.720,189.459 380.510,189.160 382.600 L 188.618 386.400 195.894 386.400 L 203.170 386.400 203.613 384.200 C 203.856 382.990,204.403 380.894,204.828 379.543 C 205.252 378.192,205.600 376.143,205.600 374.990 C 205.600 373.838,205.960 372.672,206.400 372.400 C 206.840 372.128,207.200 370.508,207.200 368.800 C 207.200 367.092,207.560 365.472,208.000 365.200 C 208.440 364.928,208.800 363.959,208.800 363.046 C 208.800 356.737,212.467 353.152,215.657 356.343 C 216.960 357.646,217.206 362.855,216.000 363.600 C 215.560 363.872,215.200 365.312,215.200 366.800 C 215.200 368.288,214.840 369.728,214.400 370.000 C 213.960 370.272,213.600 371.733,213.600 373.247 C 213.600 374.761,213.240 376.000,212.800 376.000 C 212.360 376.000,212.000 377.419,212.000 379.153 C 212.000 380.887,211.640 382.528,211.200 382.800 C 208.011 384.771,210.516 386.400,216.735 386.400 C 224.848 386.400,225.600 386.087,225.600 382.714 C 225.600 381.221,225.960 380.000,226.400 380.000 C 226.840 380.000,227.200 378.581,227.200 376.847 C 227.200 375.113,227.560 373.472,228.000 373.200 C 228.440 372.928,228.800 371.287,228.800 369.553 C 228.800 367.819,229.160 366.400,229.600 366.400 C 230.787 366.400,230.613 352.349,229.400 350.233 C 227.836 347.505,224.991 344.800,223.684 344.800 C 223.030 344.800,222.272 344.440,222.000 344.000 C 221.727 343.559,218.141 343.200,214.000 343.200 C 209.859 343.200,206.273 343.559,206.000 344.000 M249.200 344.000 C 248.928 344.440,247.377 344.811,245.753 344.825 C 241.886 344.859,240.000 346.372,240.000 349.441 C 240.000 350.797,239.680 352.103,239.288 352.345 C 238.897 352.587,238.346 354.139,238.065 355.793 C 236.830 363.049,236.584 364.039,235.912 364.455 C 235.520 364.697,235.200 366.112,235.200 367.600 C 235.200 369.088,234.840 370.528,234.400 370.800 C 233.960 371.072,233.600 372.692,233.600 374.400 C 233.600 376.108,233.240 377.728,232.800 378.000 C 232.360 378.272,232.000 380.273,232.000 382.447 L 232.000 386.400 238.785 386.400 C 245.543 386.400,245.571 386.391,246.024 384.200 C 246.656 381.144,247.956 376.097,248.914 372.977 C 249.358 371.534,249.925 368.373,250.175 365.953 C 250.424 363.533,250.937 361.362,251.314 361.129 C 251.691 360.896,252.000 359.467,252.000 357.953 C 252.000 354.864,256.833 353.648,257.914 356.465 C 258.619 358.303,258.510 364.800,257.774 364.800 C 257.430 364.800,257.074 365.790,256.982 367.000 C 256.754 369.994,255.175 376.828,254.241 378.861 C 253.821 379.775,253.595 381.755,253.739 383.261 L 254.000 386.000 260.909 386.230 L 267.818 386.460 268.340 383.430 C 268.627 381.763,269.065 379.050,269.315 377.400 C 269.564 375.750,270.090 374.400,270.484 374.400 C 270.878 374.400,271.200 373.436,271.200 372.257 C 271.200 371.078,271.532 369.008,271.939 367.657 C 274.225 360.051,274.600 356.631,273.511 353.308 C 272.349 349.762,268.011 344.800,266.074 344.800 C 265.425 344.800,264.672 344.440,264.400 344.000 C 264.128 343.560,260.708 343.200,256.800 343.200 C 252.892 343.200,249.472 343.560,249.200 344.000 M293.600 343.954 C 292.940 344.317,291.320 345.095,290.000 345.682 C 286.764 347.121,279.200 354.900,279.200 356.789 C 279.200 357.623,278.840 358.528,278.400 358.800 C 277.960 359.072,277.600 360.173,277.600 361.247 C 277.600 362.321,277.240 363.200,276.800 363.200 C 276.338 363.200,276.000 365.733,276.000 369.200 C 276.000 372.667,276.338 375.200,276.800 375.200 C 277.240 375.200,277.600 376.112,277.600 377.227 C 277.600 379.267,281.157 383.397,284.640 385.400 C 287.105 386.818,305.503 386.726,307.400 385.286 C 308.968 384.096,309.273 379.748,308.020 376.452 C 307.254 374.438,307.092 374.400,299.220 374.400 C 294.407 374.400,291.200 374.080,291.200 373.600 C 291.200 373.160,292.799 372.800,294.753 372.800 C 296.707 372.800,298.528 372.440,298.800 372.000 C 299.072 371.560,300.533 371.200,302.047 371.200 C 303.561 371.200,304.800 370.840,304.800 370.400 C 304.800 369.960,305.430 369.600,306.200 369.599 C 311.825 369.595,317.483 356.160,314.336 350.281 C 312.942 347.676,309.846 344.800,308.436 344.800 C 307.756 344.800,307.200 344.440,307.200 344.000 C 307.200 343.036,295.342 342.996,293.600 343.954 M333.600 344.000 C 333.600 344.440,332.520 344.800,331.200 344.800 C 329.880 344.800,328.800 345.160,328.800 345.600 C 328.800 346.040,328.424 346.400,327.965 346.400 C 325.603 346.400,315.860 358.366,318.184 358.412 C 318.523 358.419,318.328 358.724,317.751 359.090 C 315.816 360.317,316.265 376.202,318.316 379.082 C 319.242 380.383,320.000 381.841,320.000 382.323 C 320.000 382.806,320.472 383.200,321.049 383.200 C 321.626 383.200,322.871 383.920,323.816 384.800 C 325.333 386.214,326.639 386.400,335.043 386.400 C 346.578 386.400,347.215 385.999,346.477 379.200 L 346.000 374.800 339.200 374.570 C 328.545 374.209,326.547 366.035,335.101 357.800 C 337.839 355.163,344.800 353.908,344.800 356.051 C 344.800 358.191,349.997 356.428,350.253 354.200 C 350.392 352.990,350.842 352.000,351.253 352.000 C 351.664 352.000,352.000 351.352,352.000 350.560 C 352.000 349.768,352.417 348.703,352.926 348.194 C 354.119 347.001,352.448 344.800,350.349 344.800 C 349.549 344.800,348.672 344.440,348.400 344.000 C 348.128 343.560,344.687 343.200,340.753 343.200 C 336.518 343.200,333.600 343.526,333.600 344.000 M69.600 346.353 C 69.600 347.207,69.240 348.128,68.800 348.400 C 68.360 348.672,68.000 350.112,68.000 351.600 C 68.000 353.088,67.640 354.528,67.200 354.800 C 66.760 355.072,66.400 356.692,66.400 358.400 C 66.400 360.108,66.040 361.728,65.600 362.000 C 65.160 362.272,64.800 363.712,64.800 365.200 C 64.800 366.688,64.478 368.105,64.085 368.348 C 63.691 368.591,63.181 370.142,62.952 371.795 C 62.723 373.448,62.106 376.600,61.581 378.800 C 59.785 386.333,59.506 385.970,67.291 386.230 L 74.181 386.459 75.005 384.230 C 75.458 383.003,76.266 379.840,76.800 377.200 C 77.334 374.560,78.054 371.500,78.400 370.400 C 78.746 369.300,79.462 366.240,79.991 363.600 C 80.520 360.960,81.297 357.931,81.719 356.870 C 82.140 355.808,82.698 352.658,82.958 349.870 L 83.431 344.800 76.516 344.800 C 70.203 344.800,69.600 344.935,69.600 346.353 M45.400 357.366 C 46.598 359.944,46.722 365.307,45.600 366.000 C 45.160 366.272,44.800 367.012,44.800 367.645 C 44.800 369.796,39.735 374.176,36.600 374.736 C 33.609 375.271,32.052 373.051,34.400 371.600 C 34.840 371.328,35.200 369.888,35.200 368.400 C 35.200 366.912,35.560 365.472,36.000 365.200 C 36.440 364.928,36.800 363.515,36.800 362.061 C 36.800 356.209,43.232 352.698,45.400 357.366 M173.257 356.343 C 174.586 357.671,174.864 366.819,173.600 367.600 C 173.160 367.872,172.800 368.630,172.800 369.284 C 172.800 373.774,164.438 376.192,162.600 372.234 C 161.400 369.650,161.288 366.400,162.400 366.400 C 162.840 366.400,163.200 365.320,163.200 364.000 C 163.200 362.680,163.560 361.600,164.000 361.600 C 164.440 361.600,164.800 361.047,164.800 360.371 C 164.800 356.784,170.827 353.913,173.257 356.343 M302.400 356.512 C 302.400 358.193,300.101 359.942,297.847 359.975 C 296.883 359.989,295.872 360.360,295.600 360.800 C 295.097 361.614,291.200 361.949,291.200 361.179 C 291.200 360.947,292.338 359.507,293.729 357.979 C 296.596 354.827,302.400 353.846,302.400 356.512 " stroke="none" fill="#5d5d5d" fill-rule="evenodd"></path><path id="path2" d="M259.600 58.577 C 248.529 62.502,242.569 75.592,246.911 86.444 L 248.222 89.720 244.651 93.460 C 242.687 95.517,233.907 105.110,225.140 114.778 C 216.373 124.446,207.704 133.957,205.874 135.913 L 202.549 139.470 197.052 137.735 C 194.029 136.781,190.911 136.000,190.125 136.000 C 185.814 136.000,185.598 135.301,185.622 121.372 L 185.644 108.400 188.411 106.400 C 203.933 95.179,194.851 70.784,176.000 73.063 C 160.107 74.984,154.246 92.774,165.725 104.253 L 170.400 108.928 170.400 122.028 L 170.400 135.127 167.400 135.642 C 119.533 143.859,100.234 202.765,133.825 238.127 C 156.991 262.516,194.776 263.885,219.488 241.231 C 223.407 237.639,222.647 237.400,229.598 244.398 L 235.557 250.397 235.578 256.998 C 235.646 277.540,261.979 283.190,270.473 264.485 C 276.214 251.843,265.813 238.212,251.348 239.425 L 245.928 239.879 239.257 233.210 C 231.861 225.816,232.051 226.532,235.216 218.000 C 243.872 194.672,238.588 170.142,221.136 152.629 L 215.784 147.258 218.402 144.229 C 219.843 142.563,224.155 137.780,227.985 133.600 C 231.815 129.420,236.743 124.020,238.936 121.600 C 241.130 119.180,246.601 113.172,251.095 108.249 L 259.265 99.299 264.633 99.739 C 288.510 101.698,296.673 69.065,274.800 59.094 C 271.219 57.462,263.488 57.199,259.600 58.577 " stroke="none" fill="#ffffff" fill-rule="evenodd"></path><path id="path3" d="M308.757 275.800 L 306.000 278.800 309.000 276.043 C 310.650 274.527,312.000 273.177,312.000 273.043 C 312.000 272.432,311.323 273.008,308.757 275.800 " stroke="none" fill="#ff0000" fill-rule="evenodd"></path><path id="path4" d="M179.200 17.054 C 178.980 17.273,176.890 17.664,174.556 17.923 C 168.011 18.646,156.964 21.446,153.411 23.282 C 152.647 23.677,151.318 24.000,150.458 24.000 C 149.598 24.000,148.672 24.360,148.400 24.800 C 148.128 25.240,147.218 25.600,146.377 25.600 C 145.536 25.600,143.567 26.320,142.000 27.200 C 140.433 28.080,138.622 28.800,137.976 28.800 C 137.329 28.800,136.800 29.160,136.800 29.600 C 136.800 30.040,136.080 30.400,135.200 30.400 C 134.320 30.400,133.600 30.760,133.600 31.200 C 133.600 31.640,132.880 32.000,132.000 32.000 C 131.120 32.000,130.400 32.360,130.400 32.800 C 130.400 33.240,129.680 33.600,128.800 33.600 C 127.920 33.600,127.200 33.960,127.200 34.400 C 127.200 34.840,126.815 35.200,126.344 35.200 C 125.873 35.200,123.919 36.280,122.000 37.600 C 120.081 38.920,118.206 40.000,117.832 40.000 C 117.459 40.000,116.634 40.720,116.000 41.600 C 115.366 42.480,114.351 43.200,113.744 43.200 C 113.138 43.200,111.633 44.280,110.400 45.600 C 109.167 46.920,107.775 48.000,107.306 48.000 C 104.956 48.000,80.845 72.277,80.810 74.679 C 80.805 75.052,79.720 76.367,78.400 77.600 C 77.080 78.833,76.000 80.338,76.000 80.944 C 76.000 81.551,75.280 82.566,74.400 83.200 C 73.520 83.834,72.800 84.659,72.800 85.032 C 72.800 85.406,71.779 87.217,70.530 89.056 C 69.282 90.895,67.754 93.570,67.135 95.000 C 66.516 96.430,65.737 97.600,65.405 97.600 C 65.072 97.600,64.800 98.320,64.800 99.200 C 64.800 100.080,64.440 100.800,64.000 100.800 C 63.560 100.800,63.200 101.520,63.200 102.400 C 63.200 103.280,62.840 104.000,62.400 104.000 C 61.960 104.000,61.600 104.648,61.600 105.440 C 61.600 106.232,61.282 107.222,60.893 107.640 C 60.504 108.058,59.401 110.740,58.441 113.600 C 57.481 116.460,56.389 119.520,56.014 120.400 C 55.640 121.280,55.107 122.900,54.830 124.000 C 54.553 125.100,53.781 127.980,53.115 130.400 C 45.654 157.486,50.110 209.543,61.649 230.087 C 62.502 231.606,63.200 233.378,63.200 234.024 C 63.200 234.671,63.470 235.201,63.800 235.203 C 64.130 235.204,65.300 237.183,66.400 239.600 C 67.500 242.017,68.670 243.996,69.000 243.997 C 69.330 243.999,69.600 244.540,69.600 245.200 C 69.600 245.860,69.960 246.400,70.400 246.400 C 70.840 246.400,71.200 246.775,71.200 247.232 C 71.200 248.180,74.489 253.062,75.400 253.467 C 75.730 253.613,76.000 254.190,76.000 254.748 C 76.000 255.306,77.080 256.893,78.400 258.274 C 79.720 259.655,80.800 261.149,80.800 261.593 C 80.800 262.037,81.160 262.400,81.600 262.400 C 82.040 262.400,82.400 262.770,82.400 263.221 C 82.400 265.126,103.698 286.400,105.604 286.400 C 106.042 286.400,106.400 286.760,106.400 287.200 C 106.400 287.640,106.763 288.000,107.207 288.000 C 107.651 288.000,109.145 289.080,110.526 290.400 C 111.907 291.720,113.524 292.800,114.119 292.800 C 114.713 292.800,115.200 293.160,115.200 293.600 C 115.200 294.040,115.684 294.400,116.276 294.400 C 116.868 294.400,118.004 295.120,118.800 296.000 C 119.596 296.880,120.732 297.600,121.324 297.600 C 121.916 297.600,122.400 297.960,122.400 298.400 C 122.400 298.840,122.940 299.200,123.600 299.200 C 124.260 299.200,124.800 299.493,124.800 299.851 C 124.800 300.209,126.060 300.996,127.600 301.600 C 129.140 302.204,130.400 302.991,130.400 303.349 C 130.400 303.707,131.120 304.000,132.000 304.000 C 132.880 304.000,133.600 304.360,133.600 304.800 C 133.600 305.240,134.320 305.600,135.200 305.600 C 136.080 305.600,136.800 305.960,136.800 306.400 C 136.800 306.840,137.499 307.200,138.353 307.200 C 139.207 307.200,140.128 307.560,140.400 308.000 C 140.672 308.440,141.743 308.800,142.781 308.800 C 143.818 308.800,144.787 309.078,144.933 309.418 C 145.080 309.757,148.980 311.237,153.600 312.705 C 158.220 314.174,162.825 315.695,163.833 316.086 C 164.841 316.476,168.723 317.031,172.460 317.318 C 176.197 317.605,179.443 318.146,179.674 318.520 C 180.225 319.412,222.400 319.407,222.400 318.515 C 222.400 318.139,225.010 317.626,228.200 317.375 C 231.390 317.125,236.160 316.312,238.800 315.570 C 241.440 314.828,244.594 314.039,245.810 313.818 C 247.025 313.597,248.216 313.097,248.457 312.708 C 248.698 312.318,249.598 312.000,250.458 312.000 C 251.318 312.000,252.647 311.682,253.411 311.293 C 254.175 310.905,255.700 310.236,256.800 309.807 C 257.900 309.378,260.364 308.256,262.276 307.314 C 264.187 306.371,266.257 305.600,266.876 305.600 C 267.494 305.600,268.000 305.240,268.000 304.800 C 268.000 304.360,268.720 304.000,269.600 304.000 C 270.480 304.000,271.200 303.640,271.200 303.200 C 271.200 302.760,271.920 302.400,272.800 302.400 C 273.680 302.400,274.400 302.128,274.400 301.795 C 274.400 301.463,275.570 300.673,277.000 300.040 C 278.430 299.407,280.298 298.239,281.151 297.445 C 282.004 296.650,283.094 296.000,283.574 296.000 C 284.054 296.000,284.966 295.280,285.600 294.400 C 286.234 293.520,287.249 292.800,287.856 292.800 C 288.462 292.800,289.967 291.720,291.200 290.400 C 292.433 289.080,293.848 288.000,294.344 288.000 C 295.388 288.000,297.562 286.055,308.000 275.777 C 316.952 266.962,320.800 262.668,320.800 261.494 C 320.800 261.025,321.880 259.633,323.200 258.400 C 324.520 257.167,325.600 255.662,325.600 255.056 C 325.600 254.449,326.320 253.434,327.200 252.800 C 328.080 252.166,328.800 251.254,328.800 250.774 C 328.800 250.294,329.432 249.204,330.205 248.351 C 330.978 247.498,332.867 244.280,334.402 241.200 C 335.937 238.120,337.465 235.480,337.796 235.333 C 338.128 235.187,338.400 234.377,338.400 233.533 C 338.400 232.690,338.760 232.000,339.200 232.000 C 339.640 232.000,340.000 231.471,340.000 230.824 C 340.000 230.178,340.720 228.367,341.600 226.800 C 342.480 225.233,343.200 223.314,343.200 222.536 C 343.200 221.757,343.495 220.778,343.856 220.360 C 344.217 219.942,345.336 216.900,346.343 213.600 C 347.350 210.300,348.517 206.724,348.936 205.654 C 349.356 204.584,349.911 200.702,350.170 197.027 C 350.429 193.352,350.947 190.156,351.321 189.925 C 351.694 189.694,352.000 185.948,352.000 181.600 C 352.000 177.193,352.354 173.476,352.800 173.200 C 353.240 172.928,353.600 170.588,353.600 168.000 C 353.600 165.412,353.240 163.072,352.800 162.800 C 352.350 162.522,352.000 158.674,352.000 154.000 C 352.000 149.432,351.694 145.505,351.321 145.275 C 350.947 145.044,350.418 142.052,350.144 138.627 C 349.871 135.202,348.916 130.425,348.023 128.011 C 347.131 125.598,346.400 122.983,346.400 122.200 C 346.400 121.418,345.984 119.973,345.475 118.989 C 343.547 115.260,343.200 114.389,343.200 113.286 C 343.200 112.662,342.523 110.767,341.695 109.076 C 340.867 107.384,339.337 104.200,338.295 102.000 C 337.253 99.800,336.130 97.880,335.800 97.733 C 335.470 97.587,335.200 96.777,335.200 95.933 C 335.200 95.090,334.907 94.400,334.549 94.400 C 334.191 94.400,333.404 93.140,332.800 91.600 C 332.196 90.060,331.409 88.800,331.051 88.800 C 330.693 88.800,330.400 88.260,330.400 87.600 C 330.400 86.940,330.040 86.400,329.600 86.400 C 329.160 86.400,328.800 85.860,328.800 85.200 C 328.800 84.540,328.440 84.000,328.000 84.000 C 327.560 84.000,327.200 83.513,327.200 82.919 C 327.200 82.324,326.120 80.707,324.800 79.326 C 323.480 77.945,322.400 76.451,322.400 76.007 C 322.400 75.563,322.040 75.200,321.600 75.200 C 321.160 75.200,320.800 74.824,320.800 74.364 C 320.800 73.904,319.990 72.680,319.000 71.644 C 318.010 70.609,316.417 68.735,315.460 67.481 C 312.629 63.769,306.288 57.398,302.025 53.984 C 299.838 52.233,296.995 49.810,295.706 48.600 C 294.417 47.390,293.053 46.400,292.674 46.400 C 292.295 46.400,290.855 45.320,289.474 44.000 C 288.093 42.680,286.476 41.600,285.881 41.600 C 285.287 41.600,284.800 41.240,284.800 40.800 C 284.800 40.360,284.328 40.000,283.751 40.000 C 283.174 40.000,281.929 39.280,280.984 38.400 C 280.040 37.520,278.892 36.800,278.433 36.800 C 277.975 36.800,277.600 36.440,277.600 36.000 C 277.600 35.560,276.880 35.200,276.000 35.200 C 275.120 35.200,274.400 34.840,274.400 34.400 C 274.400 33.960,273.680 33.600,272.800 33.600 C 271.920 33.600,271.200 33.240,271.200 32.800 C 271.200 32.360,270.480 32.000,269.600 32.000 C 268.720 32.000,267.997 31.730,267.994 31.400 C 267.986 30.682,264.112 28.800,262.641 28.800 C 262.068 28.800,261.600 28.440,261.600 28.000 C 261.600 27.560,260.901 27.200,260.047 27.200 C 259.193 27.200,258.272 26.840,258.000 26.400 C 257.728 25.960,256.802 25.600,255.942 25.600 C 255.082 25.600,253.753 25.251,252.989 24.825 C 250.354 23.355,242.448 20.949,232.800 18.680 C 227.749 17.492,180.205 16.050,179.200 17.054 M274.800 59.094 C 296.673 69.065,288.510 101.698,264.633 99.739 L 259.265 99.299 251.095 108.249 C 246.601 113.172,241.130 119.180,238.936 121.600 C 236.743 124.020,231.815 129.420,227.985 133.600 C 224.155 137.780,219.843 142.563,218.402 144.229 L 215.784 147.258 221.136 152.629 C 238.588 170.142,243.872 194.672,235.216 218.000 C 232.051 226.532,231.861 225.816,239.257 233.210 L 245.928 239.879 251.348 239.425 C 265.813 238.212,276.214 251.843,270.473 264.485 C 261.979 283.190,235.646 277.540,235.578 256.998 L 235.557 250.397 229.598 244.398 C 222.647 237.400,223.407 237.639,219.488 241.231 C 194.776 263.885,156.991 262.516,133.825 238.127 C 100.234 202.765,119.533 143.859,167.400 135.642 L 170.400 135.127 170.400 122.028 L 170.400 108.928 165.725 104.253 C 154.246 92.774,160.107 74.984,176.000 73.063 C 194.851 70.784,203.933 95.179,188.411 106.400 L 185.644 108.400 185.622 121.372 C 185.598 135.301,185.814 136.000,190.125 136.000 C 190.911 136.000,194.029 136.781,197.052 137.735 L 202.549 139.470 205.874 135.913 C 207.704 133.957,216.373 124.446,225.140 114.778 C 233.907 105.110,242.687 95.517,244.651 93.460 L 248.222 89.720 246.911 86.444 C 240.108 69.441,258.319 51.581,274.800 59.094 " stroke="none" fill="#f7931a" fill-rule="evenodd"></path></g></svg>