<svg id="svg" version="1.1" width="500" height="500" xmlns="http://www.w3.org/2000/svg" xmlns:xlink="http://www.w3.org/1999/xlink" style="display: block;"><g id="svgg"><path id="path0" d="M182.800 50.502 C 171.993 51.567,168.431 52.125,167.640 52.878 C 167.222 53.275,165.988 53.600,164.897 53.600 C 163.806 53.600,161.808 53.952,160.457 54.382 C 151.146 57.348,147.398 58.589,146.000 59.171 C 113.785 72.579,92.352 89.583,74.874 115.600 C 67.761 126.189,58.400 144.340,58.400 147.544 C 58.400 148.183,58.040 148.928,57.600 149.200 C 57.160 149.472,56.800 150.398,56.800 151.258 C 56.800 152.118,56.484 153.447,56.098 154.211 C 54.959 156.466,53.600 161.191,53.600 162.897 C 53.600 163.768,53.277 164.822,52.882 165.240 C 52.487 165.658,51.960 167.440,51.711 169.200 C 51.461 170.960,50.804 175.460,50.249 179.200 C 48.285 192.454,49.032 215.784,51.902 230.800 C 52.609 234.498,53.082 236.335,55.301 244.000 C 55.747 245.540,56.309 247.615,56.551 248.612 C 56.793 249.608,57.308 250.620,57.696 250.859 C 58.083 251.099,58.400 251.817,58.400 252.456 C 58.400 256.003,74.534 286.645,77.535 288.800 C 77.842 289.020,78.612 289.959,79.246 290.886 C 83.144 296.580,95.857 309.975,102.323 315.200 C 104.229 316.740,106.196 318.385,106.694 318.856 C 124.843 336.012,167.634 350.693,199.600 350.732 C 210.083 350.744,228.113 348.324,238.800 345.469 C 242.414 344.504,246.035 343.345,248.400 342.397 C 249.280 342.045,252.160 340.940,254.800 339.943 C 263.822 336.536,285.490 324.857,287.200 322.479 C 287.420 322.173,288.860 321.047,290.400 319.976 C 294.591 317.062,297.233 314.742,305.736 306.513 C 309.997 302.389,313.860 299.266,314.336 299.560 C 314.924 299.924,315.200 307.853,315.200 324.382 C 315.200 337.740,315.419 349.239,315.686 349.935 C 316.108 351.035,318.453 351.200,333.686 351.200 L 351.200 351.200 351.200 285.600 L 351.200 220.000 286.000 220.000 L 220.800 220.000 220.800 237.992 L 220.800 255.985 259.400 256.192 C 303.669 256.431,300.085 255.591,294.198 264.344 C 262.842 310.964,200.999 327.761,149.916 303.533 C 131.426 294.764,112.963 278.212,101.794 260.394 C 98.578 255.265,92.000 241.401,92.000 239.755 C 92.000 239.062,91.640 238.272,91.200 238.000 C 90.760 237.728,90.400 236.699,90.400 235.713 C 90.400 234.727,90.098 233.578,89.729 233.160 C 89.360 232.742,88.614 230.240,88.072 227.600 C 87.531 224.960,86.774 221.540,86.390 220.000 C 84.325 211.710,84.785 187.683,87.224 176.400 C 87.700 174.200,88.289 171.227,88.533 169.793 C 88.777 168.359,89.297 166.987,89.688 166.745 C 90.080 166.503,90.400 165.448,90.400 164.400 C 90.400 163.352,90.760 162.272,91.200 162.000 C 91.640 161.728,92.000 160.938,92.000 160.245 C 92.000 158.573,98.618 144.662,101.818 139.606 C 107.607 130.460,117.059 119.740,126.934 111.120 C 135.873 103.317,154.364 93.515,166.200 90.305 C 167.630 89.917,170.150 89.225,171.800 88.767 C 197.139 81.733,232.238 86.641,256.400 100.596 C 282.676 115.772,300.796 139.387,310.421 171.000 L 311.456 174.400 329.821 174.400 L 348.187 174.400 347.624 172.600 C 347.109 170.952,346.560 168.570,345.183 162.000 C 344.906 160.680,344.389 158.880,344.035 158.000 C 343.681 157.120,342.538 153.700,341.496 150.400 C 333.934 126.449,313.101 97.279,292.360 81.602 C 289.742 79.623,287.420 77.822,287.200 77.600 C 284.218 74.586,263.961 63.559,255.600 60.398 C 252.520 59.234,249.375 57.948,248.611 57.541 C 247.847 57.133,246.518 56.800,245.658 56.800 C 244.798 56.800,243.897 56.480,243.655 56.088 C 243.413 55.697,242.041 55.183,240.607 54.946 C 239.173 54.709,236.380 54.107,234.400 53.608 C 220.058 49.991,200.143 48.792,182.800 50.502 " stroke="none" fill="#ffffff" fill-rule="evenodd"></path><path id="path1" d="M165.200 0.907 C 162.560 1.314,158.690 1.851,156.600 2.101 C 154.510 2.350,152.800 2.880,152.800 3.277 C 152.800 3.675,151.360 4.000,149.600 4.000 C 147.840 4.000,146.400 4.360,146.400 4.800 C 146.400 5.240,145.320 5.600,144.000 5.600 C 142.680 5.600,141.600 5.960,141.600 6.400 C 141.600 6.840,140.790 7.209,139.800 7.221 C 137.237 7.250,127.084 10.818,127.729 11.462 C 128.025 11.758,127.127 12.000,125.733 12.000 C 124.340 12.000,123.200 12.360,123.200 12.800 C 123.200 13.240,122.480 13.600,121.600 13.600 C 120.720 13.600,120.000 13.960,120.000 14.400 C 120.000 14.840,119.121 15.200,118.047 15.200 C 116.973 15.200,115.872 15.560,115.600 16.000 C 115.328 16.440,114.407 16.800,113.553 16.800 C 112.699 16.800,112.000 17.220,112.000 17.733 C 112.000 18.247,111.777 18.444,111.505 18.172 C 110.932 17.598,98.770 23.553,98.013 24.779 C 97.734 25.230,96.807 25.600,95.953 25.600 C 95.099 25.600,94.400 25.960,94.400 26.400 C 94.400 26.840,93.928 27.200,93.351 27.200 C 92.774 27.200,91.529 27.920,90.584 28.800 C 89.640 29.680,88.571 30.400,88.210 30.400 C 87.849 30.400,87.034 31.120,86.400 32.000 C 85.766 32.880,84.876 33.601,84.423 33.602 C 83.971 33.603,82.340 34.682,80.800 36.000 C 79.260 37.318,77.694 38.397,77.321 38.398 C 76.948 38.399,75.633 39.480,74.400 40.800 C 73.167 42.120,71.762 43.200,71.279 43.200 C 70.796 43.200,70.400 43.560,70.400 44.000 C 70.400 44.440,70.054 44.800,69.630 44.800 C 68.766 44.800,61.932 51.018,55.713 57.463 C 53.451 59.807,50.070 63.308,48.200 65.242 C 46.330 67.176,44.800 69.127,44.800 69.579 C 44.800 70.031,44.440 70.400,44.000 70.400 C 43.560 70.400,43.200 70.796,43.200 71.279 C 43.200 71.762,42.120 73.167,40.800 74.400 C 39.480 75.633,38.400 77.041,38.400 77.528 C 38.400 78.016,37.320 79.545,36.000 80.926 C 34.680 82.307,33.600 83.844,33.600 84.342 C 33.600 84.840,32.880 85.766,32.000 86.400 C 31.120 87.034,30.400 88.014,30.400 88.577 C 30.400 89.139,30.040 89.600,29.600 89.600 C 29.160 89.600,28.800 90.110,28.800 90.733 C 28.800 91.357,28.530 91.987,28.200 92.133 C 27.870 92.280,26.739 94.020,25.687 96.000 C 24.635 97.980,22.407 102.172,20.735 105.315 C 19.064 108.458,17.915 111.248,18.182 111.515 C 18.448 111.782,18.247 112.000,17.733 112.000 C 17.220 112.000,16.800 112.720,16.800 113.600 C 16.800 114.480,16.440 115.200,16.000 115.200 C 15.560 115.200,15.200 116.301,15.200 117.647 C 15.200 119.075,14.867 119.888,14.400 119.600 C 13.960 119.328,13.600 119.826,13.600 120.706 C 13.600 121.586,13.240 122.528,12.800 122.800 C 12.360 123.072,12.000 124.173,12.000 125.247 C 12.000 126.321,11.640 127.200,11.200 127.200 C 10.760 127.200,10.400 128.100,10.400 129.200 C 10.400 130.300,10.081 131.200,9.691 131.200 C 9.021 131.200,8.516 132.976,7.475 139.000 C 7.227 140.430,6.704 141.600,6.312 141.600 C 5.921 141.600,5.600 142.680,5.600 144.000 C 5.600 145.320,5.240 146.400,4.800 146.400 C 4.360 146.400,4.000 147.840,4.000 149.600 C 4.000 151.360,3.675 152.800,3.277 152.800 C 2.880 152.800,2.360 154.510,2.123 156.600 C 1.885 158.690,1.291 163.280,0.803 166.800 C -0.474 175.998,0.034 236.355,1.400 237.721 C 1.950 238.270,2.400 240.247,2.400 242.113 C 2.400 243.979,2.760 245.728,3.200 246.000 C 3.640 246.272,4.000 247.733,4.000 249.247 C 4.000 250.761,4.360 252.000,4.800 252.000 C 5.240 252.000,5.600 253.239,5.600 254.753 C 5.600 256.267,5.960 257.728,6.400 258.000 C 6.840 258.272,7.200 259.553,7.200 260.847 C 7.200 262.141,7.560 263.200,8.000 263.200 C 8.440 263.200,8.800 264.079,8.800 265.153 C 8.800 266.227,9.160 267.328,9.600 267.600 C 10.040 267.872,10.400 268.952,10.400 270.000 C 10.400 271.048,10.760 272.128,11.200 272.400 C 11.640 272.672,12.000 273.593,12.000 274.447 C 12.000 275.301,12.360 276.000,12.800 276.000 C 13.240 276.000,13.600 276.699,13.600 277.553 C 13.600 278.407,13.960 279.328,14.400 279.600 C 14.840 279.872,15.200 280.793,15.200 281.647 C 15.200 282.501,15.560 283.200,16.000 283.200 C 16.440 283.200,16.800 283.745,16.800 284.411 C 16.800 285.077,17.132 286.247,17.538 287.011 C 17.944 287.775,19.619 291.100,21.260 294.400 C 24.684 301.285,25.835 303.436,26.401 304.000 C 26.622 304.220,27.310 305.384,27.929 306.586 C 28.549 307.789,29.647 309.409,30.368 310.186 C 31.090 310.964,31.921 312.230,32.215 313.000 C 32.509 313.770,33.142 314.400,33.622 314.400 C 34.102 314.400,34.312 314.694,34.090 315.054 C 33.868 315.414,34.386 316.214,35.243 316.831 C 36.099 317.448,36.800 318.449,36.800 319.056 C 36.800 319.662,37.880 321.167,39.200 322.400 C 40.520 323.633,41.600 325.061,41.600 325.573 C 41.600 326.085,43.400 328.257,45.600 330.400 C 47.800 332.543,49.600 334.670,49.600 335.126 C 49.600 336.210,63.790 350.400,64.874 350.400 C 65.330 350.400,67.457 352.200,69.600 354.400 C 71.743 356.600,73.915 358.400,74.427 358.400 C 74.939 358.400,76.367 359.480,77.600 360.800 C 78.833 362.120,80.285 363.200,80.827 363.200 C 81.369 363.200,82.395 363.831,83.106 364.602 C 84.849 366.490,94.050 372.800,95.060 372.800 C 95.504 372.800,95.987 373.123,96.133 373.518 C 96.517 374.551,113.728 383.200,115.399 383.200 C 116.170 383.200,116.800 383.560,116.800 384.000 C 116.800 384.440,117.520 384.800,118.400 384.800 C 119.280 384.800,120.000 385.160,120.000 385.600 C 120.000 386.040,120.709 386.400,121.576 386.400 C 122.442 386.400,124.433 387.120,126.000 388.000 C 127.567 388.880,129.536 389.600,130.377 389.600 C 131.218 389.600,132.128 389.960,132.400 390.400 C 132.672 390.840,133.773 391.200,134.847 391.200 C 135.921 391.200,136.800 391.560,136.800 392.000 C 136.800 392.440,137.859 392.800,139.153 392.800 C 140.447 392.800,141.728 393.160,142.000 393.600 C 142.272 394.040,143.733 394.400,145.247 394.400 C 146.761 394.400,148.000 394.760,148.000 395.200 C 148.000 395.640,149.440 396.000,151.200 396.000 C 152.960 396.000,154.400 396.360,154.400 396.800 C 154.400 397.240,155.768 397.600,157.440 397.600 C 159.112 397.600,160.930 398.050,161.480 398.600 C 162.269 399.389,187.546 399.647,281.267 399.825 L 400.055 400.050 399.828 281.492 C 399.647 187.518,399.393 162.864,398.600 162.600 C 397.981 162.394,397.600 160.769,397.600 158.333 C 397.600 156.170,397.240 154.400,396.800 154.400 C 396.360 154.400,396.000 153.161,396.000 151.647 C 396.000 150.133,395.640 148.672,395.200 148.400 C 394.760 148.128,394.400 146.847,394.400 145.553 C 394.400 144.259,394.040 143.200,393.600 143.200 C 393.160 143.200,392.800 142.150,392.800 140.867 C 392.800 139.583,392.443 138.413,392.007 138.267 C 391.571 138.120,391.132 137.010,391.032 135.800 C 390.933 134.590,390.570 133.600,390.226 133.600 C 389.881 133.600,389.600 132.721,389.600 131.647 C 389.600 130.573,389.240 129.472,388.800 129.200 C 388.360 128.928,388.000 127.827,388.000 126.753 C 388.000 125.679,387.640 124.800,387.200 124.800 C 386.760 124.800,386.400 124.332,386.400 123.759 C 386.400 122.288,384.518 118.414,383.800 118.406 C 383.470 118.403,383.198 117.770,383.195 117.000 C 383.192 116.230,382.652 114.569,381.995 113.309 C 381.338 112.048,380.800 110.518,380.800 109.909 C 380.800 109.299,380.440 108.800,380.000 108.800 C 379.560 108.800,379.200 108.080,379.200 107.200 C 379.200 106.320,378.840 105.600,378.400 105.600 C 377.960 105.600,377.600 104.880,377.600 104.000 C 377.600 103.120,377.240 102.400,376.800 102.400 C 376.360 102.400,376.000 101.928,376.000 101.351 C 376.000 100.774,375.280 99.529,374.400 98.584 C 373.520 97.640,372.800 96.312,372.800 95.633 C 372.800 94.955,372.440 94.400,372.000 94.400 C 371.560 94.400,371.200 93.928,371.200 93.351 C 371.200 92.774,370.559 91.604,369.776 90.751 C 368.993 89.898,367.103 87.400,365.576 85.200 C 364.049 83.000,362.170 80.618,361.400 79.906 C 360.630 79.195,360.000 78.241,360.000 77.787 C 360.000 77.333,358.200 75.124,356.000 72.877 C 353.800 70.630,352.000 68.434,352.000 67.996 C 352.000 67.558,351.640 67.200,351.200 67.200 C 350.760 67.200,350.400 66.812,350.400 66.339 C 350.400 65.218,334.777 49.600,333.656 49.600 C 333.185 49.600,332.800 49.240,332.800 48.800 C 332.800 48.360,332.442 48.000,332.004 48.000 C 331.566 48.000,329.370 46.200,327.123 44.000 C 324.876 41.800,322.698 40.000,322.283 40.000 C 321.867 40.000,320.653 39.126,319.585 38.058 C 318.517 36.990,316.554 35.472,315.222 34.686 C 313.890 33.899,312.800 32.973,312.800 32.628 C 312.800 32.282,312.260 32.000,311.600 32.000 C 310.940 32.000,310.400 31.640,310.400 31.200 C 310.400 30.760,309.928 30.400,309.351 30.400 C 308.774 30.400,307.529 29.680,306.584 28.800 C 305.640 27.920,304.312 27.200,303.633 27.200 C 302.955 27.200,302.400 26.819,302.400 26.353 C 302.400 25.887,302.062 25.714,301.649 25.970 C 301.236 26.225,300.606 25.976,300.249 25.417 C 299.892 24.858,297.980 23.611,296.000 22.648 C 287.205 18.367,283.629 16.800,282.650 16.800 C 282.073 16.800,281.600 16.440,281.600 16.000 C 281.600 15.560,280.880 15.200,280.000 15.200 C 279.120 15.200,278.400 14.840,278.400 14.400 C 278.400 13.960,277.500 13.600,276.400 13.600 C 275.300 13.600,274.400 13.240,274.400 12.800 C 274.400 12.360,273.479 12.000,272.353 12.000 C 271.192 12.000,270.520 11.654,270.800 11.200 C 271.088 10.733,270.275 10.400,268.847 10.400 C 267.501 10.400,266.400 10.040,266.400 9.600 C 266.400 9.160,265.320 8.800,264.000 8.800 C 262.680 8.800,261.600 8.440,261.600 8.000 C 261.600 7.560,260.520 7.200,259.200 7.200 C 257.880 7.200,256.800 6.840,256.800 6.400 C 256.800 5.960,255.741 5.600,254.447 5.600 C 253.153 5.600,251.872 5.240,251.600 4.800 C 251.328 4.360,249.867 4.000,248.353 4.000 C 246.839 4.000,245.600 3.640,245.600 3.200 C 245.600 2.760,243.800 2.400,241.600 2.400 C 239.400 2.400,237.600 2.100,237.600 1.733 C 237.600 0.400,173.252 -0.334,165.200 0.907 M220.400 48.877 C 228.521 50.086,234.017 51.205,239.600 52.785 C 241.360 53.283,243.880 53.984,245.200 54.342 C 247.337 54.923,251.763 56.524,256.400 58.394 C 278.981 67.500,299.655 82.409,315.204 100.800 C 317.622 103.660,319.814 106.180,320.075 106.400 C 327.799 112.903,343.917 147.041,348.025 165.600 C 348.561 168.020,349.294 170.985,349.654 172.188 C 350.955 176.538,349.834 176.800,329.890 176.800 C 311.552 176.800,308.800 176.403,308.800 173.754 C 308.800 171.537,302.896 155.293,300.021 149.600 C 287.395 124.596,268.925 107.739,240.400 95.186 C 236.552 93.493,225.348 90.384,217.356 88.791 C 211.603 87.645,185.091 87.625,182.093 88.765 C 180.885 89.224,178.955 89.600,177.805 89.600 C 176.655 89.600,174.608 89.949,173.257 90.376 C 171.906 90.803,168.280 91.908,165.200 92.831 C 134.987 101.894,106.755 128.048,95.287 157.600 C 93.835 161.340,92.349 165.120,91.984 166.000 C 91.619 166.880,91.097 168.680,90.824 170.000 C 90.552 171.320,89.961 173.840,89.511 175.600 C 86.783 186.287,86.056 203.981,87.869 215.600 C 88.418 219.120,89.070 223.352,89.318 225.005 C 89.566 226.658,90.091 228.209,90.485 228.452 C 90.878 228.695,91.200 229.725,91.200 230.741 C 91.200 232.798,93.739 239.613,98.153 249.400 C 100.402 254.387,107.100 264.882,111.557 270.400 C 129.106 292.130,151.266 305.134,181.200 311.267 C 187.521 312.562,211.887 312.572,217.600 311.282 C 228.903 308.730,232.327 307.793,238.490 305.567 C 247.360 302.364,261.367 294.869,266.084 290.800 C 266.595 290.360,268.584 288.755,270.506 287.234 C 279.018 280.495,295.200 261.899,295.200 258.856 C 295.200 258.605,278.529 258.400,258.153 258.400 C 229.770 258.400,220.786 258.166,219.738 257.400 C 218.503 256.497,218.391 254.566,218.585 237.600 L 218.800 218.800 286.000 218.800 L 353.200 218.800 353.405 285.305 L 353.609 351.811 351.805 352.295 C 349.132 353.011,315.763 352.879,314.612 352.148 C 313.870 351.677,313.571 345.346,313.412 326.760 L 313.200 302.000 308.000 307.253 C 303.628 311.670,297.716 316.856,290.082 322.970 C 279.574 331.388,257.667 342.145,242.400 346.386 C 240.420 346.936,237.900 347.665,236.800 348.007 C 234.756 348.642,228.216 349.993,223.200 350.815 C 205.110 353.781,176.342 352.185,159.000 347.253 C 157.350 346.784,154.830 346.089,153.400 345.708 C 140.060 342.156,114.790 328.560,102.927 318.550 C 98.223 314.582,81.932 298.020,79.563 294.800 C 78.268 293.040,77.006 291.420,76.758 291.200 C 75.243 289.857,66.769 276.063,63.735 270.000 C 60.548 263.631,59.429 261.190,56.771 254.800 C 56.405 253.920,55.672 251.760,55.142 250.000 C 54.612 248.240,53.909 246.080,53.580 245.200 C 52.398 242.036,49.904 232.129,49.150 227.600 C 46.693 212.845,45.913 197.157,47.126 186.887 C 48.570 174.652,51.379 160.691,53.580 154.800 C 53.909 153.920,54.612 151.760,55.142 150.000 C 56.098 146.826,56.333 146.204,58.624 140.800 C 68.837 116.701,84.186 96.787,106.205 79.067 C 117.508 69.971,137.798 59.286,151.600 55.160 C 153.360 54.634,155.425 53.888,156.189 53.502 C 156.953 53.116,158.462 52.800,159.542 52.800 C 160.622 52.800,161.705 52.478,161.948 52.085 C 162.191 51.691,163.742 51.165,165.395 50.916 C 167.048 50.667,170.560 50.076,173.200 49.603 C 184.837 47.521,208.812 47.152,220.400 48.877 " stroke="none" fill="#98c01f" fill-rule="evenodd"></path><path id="path2" d="M197.800 47.751 C 198.570 47.953,199.830 47.953,200.600 47.751 C 201.370 47.550,200.740 47.386,199.200 47.386 C 197.660 47.386,197.030 47.550,197.800 47.751 M178.400 48.826 C 177.199 49.226,178.956 49.311,182.800 49.039 C 186.320 48.789,189.350 48.453,189.533 48.292 C 190.202 47.706,180.342 48.179,178.400 48.826 M209.667 48.289 C 209.850 48.448,212.700 48.777,216.000 49.021 C 219.552 49.284,221.184 49.198,220.000 48.812 C 218.046 48.174,209.007 47.717,209.667 48.289 M168.800 50.400 C 167.284 51.380,169.741 51.380,172.800 50.400 C 174.760 49.772,174.752 49.758,172.400 49.692 C 171.080 49.655,169.460 49.973,168.800 50.400 M224.067 49.894 C 224.250 50.056,225.840 50.429,227.600 50.724 C 229.893 51.107,230.460 51.028,229.600 50.442 C 228.521 49.707,223.264 49.186,224.067 49.894 M162.000 52.000 C 161.410 52.955,162.977 52.955,165.200 52.000 C 166.629 51.386,166.569 51.306,164.647 51.256 C 163.463 51.225,162.272 51.560,162.000 52.000 M233.600 52.000 C 236.683 52.987,238.328 52.987,236.800 52.000 C 236.140 51.573,234.700 51.255,233.600 51.292 L 231.600 51.359 233.600 52.000 M156.400 53.600 C 155.815 54.546,156.598 54.546,158.800 53.600 C 160.343 52.937,160.337 52.910,158.647 52.856 C 157.683 52.825,156.672 53.160,156.400 53.600 M239.600 53.600 C 241.992 54.628,243.990 54.628,242.400 53.600 C 241.740 53.173,240.480 52.844,239.600 52.868 L 238.000 52.912 239.600 53.600 M245.600 55.200 C 246.260 55.627,247.340 55.975,248.000 55.975 C 249.067 55.975,249.067 55.889,248.000 55.200 C 247.340 54.773,246.260 54.425,245.600 54.425 C 244.533 54.425,244.533 54.511,245.600 55.200 M144.400 57.658 C 142.640 58.504,142.100 58.973,143.200 58.699 C 146.211 57.951,150.168 56.131,148.800 56.125 C 148.140 56.121,146.160 56.811,144.400 57.658 M136.907 60.506 C 135.426 61.152,134.402 61.868,134.631 62.098 C 134.861 62.328,136.433 61.786,138.125 60.893 C 141.670 59.023,140.882 58.771,136.907 60.506 M127.136 65.434 C 120.074 69.414,107.228 77.866,107.213 78.544 C 107.206 78.843,110.530 76.822,114.600 74.053 C 118.670 71.284,124.610 67.675,127.800 66.033 C 133.183 63.262,134.501 62.349,133.000 62.434 C 132.670 62.453,130.031 63.803,127.136 65.434 M270.000 65.433 C 277.257 69.310,286.314 75.193,292.600 80.113 C 295.350 82.266,297.593 83.751,297.584 83.413 C 297.543 81.863,278.469 68.894,269.673 64.437 C 263.452 61.285,263.712 62.074,270.000 65.433 M99.096 85.073 C 84.865 97.553,71.453 114.288,65.274 127.274 C 63.733 130.514,64.437 129.502,70.915 119.169 C 79.110 106.095,90.496 92.998,102.400 82.952 C 104.820 80.910,106.573 79.230,106.296 79.220 C 106.019 79.209,102.779 81.843,99.096 85.073 M306.829 92.800 C 319.706 106.219,326.714 115.823,334.555 130.800 C 340.062 141.318,340.744 141.450,335.501 130.984 C 332.421 124.836,321.724 107.789,320.075 106.400 C 319.814 106.180,317.620 103.663,315.200 100.806 C 310.691 95.483,304.505 89.151,300.343 85.600 C 299.055 84.500,301.973 87.740,306.829 92.800 M189.600 87.179 C 186.418 87.486,190.143 87.684,199.200 87.689 C 209.128 87.694,212.288 87.514,208.800 87.142 C 202.617 86.482,196.690 86.494,189.600 87.179 M177.600 88.800 C 175.650 89.425,175.660 89.441,178.000 89.464 C 179.320 89.477,181.120 89.178,182.000 88.800 C 184.187 87.860,180.535 87.860,177.600 88.800 M216.800 88.800 C 217.900 89.152,219.880 89.434,221.200 89.426 L 223.600 89.411 221.200 88.800 C 219.880 88.464,217.900 88.183,216.800 88.174 L 214.800 88.159 216.800 88.800 M170.800 90.400 L 169.200 91.088 170.800 91.132 C 171.680 91.156,172.940 90.827,173.600 90.400 C 175.190 89.372,173.192 89.372,170.800 90.400 M224.800 90.400 C 225.460 90.827,226.900 91.145,228.000 91.108 L 230.000 91.041 228.000 90.400 C 224.917 89.413,223.272 89.413,224.800 90.400 M165.200 92.000 C 164.191 92.433,164.044 92.688,164.800 92.688 C 165.460 92.688,166.720 92.378,167.600 92.000 C 168.609 91.567,168.756 91.312,168.000 91.312 C 167.340 91.312,166.080 91.622,165.200 92.000 M230.400 91.508 C 230.400 92.042,238.557 94.509,238.967 94.100 C 239.182 93.885,237.457 93.144,235.134 92.454 C 230.512 91.082,230.400 91.060,230.400 91.508 M157.600 94.709 C 147.229 99.048,131.593 108.234,128.754 111.655 C 128.152 112.381,130.526 110.917,134.029 108.401 C 139.284 104.628,152.307 97.712,161.600 93.759 C 162.700 93.291,163.240 92.899,162.800 92.888 C 162.360 92.877,160.020 93.696,157.600 94.709 M240.400 95.200 C 240.672 95.640,241.269 96.000,241.726 96.000 C 243.407 96.000,255.908 102.463,261.273 106.106 C 283.112 120.935,297.632 139.677,305.653 163.390 C 307.102 167.674,308.430 171.036,308.605 170.862 C 311.719 167.748,293.248 134.328,281.655 122.101 C 270.693 110.539,235.831 87.807,240.400 95.200 M122.295 117.094 C 112.403 126.300,104.505 136.724,98.518 148.473 C 94.781 155.807,90.935 165.601,91.550 166.216 C 91.777 166.443,92.186 165.947,92.458 165.115 C 98.027 148.108,106.433 134.387,119.336 121.241 C 127.927 112.489,129.279 110.593,122.295 117.094 M60.447 136.411 C 58.720 140.545,58.948 141.012,60.893 137.325 C 61.786 135.633,62.331 134.064,62.105 133.838 C 61.879 133.612,61.133 134.770,60.447 136.411 M339.291 140.400 C 339.306 140.840,340.011 142.640,340.858 144.400 C 341.704 146.160,342.172 146.700,341.899 145.600 C 341.335 143.335,339.250 139.176,339.291 140.400 M342.425 148.800 C 342.425 149.460,342.773 150.540,343.200 151.200 C 343.889 152.267,343.975 152.267,343.975 151.200 C 343.975 150.540,343.627 149.460,343.200 148.800 C 342.511 147.733,342.425 147.733,342.425 148.800 M54.800 150.400 C 54.500 151.346,54.434 152.301,54.654 152.521 C 54.874 152.741,55.300 152.146,55.600 151.200 C 55.900 150.254,55.966 149.299,55.746 149.079 C 55.526 148.859,55.100 149.454,54.800 150.400 M53.333 154.933 C 53.040 155.227,52.823 156.217,52.851 157.133 C 52.897 158.666,52.963 158.646,53.668 156.884 C 54.451 154.925,54.289 153.978,53.333 154.933 M345.668 159.200 C 345.693 159.860,346.022 161.120,346.400 162.000 L 347.088 163.600 347.132 162.000 C 347.156 161.120,346.827 159.860,346.400 159.200 C 345.711 158.133,345.629 158.133,345.668 159.200 M51.747 160.306 C 51.446 161.090,51.223 162.331,51.251 163.065 C 51.284 163.949,51.562 163.748,52.074 162.469 C 52.498 161.406,52.721 160.164,52.570 159.709 C 52.418 159.254,52.048 159.522,51.747 160.306 M347.312 165.200 C 347.312 166.080,347.622 167.520,348.000 168.400 L 348.688 170.000 348.688 168.400 C 348.688 167.520,348.378 166.080,348.000 165.200 L 347.312 163.600 347.312 165.200 M50.113 167.368 C 49.843 168.376,49.653 169.920,49.691 170.800 C 49.729 171.680,50.090 170.996,50.493 169.279 C 51.273 165.955,50.940 164.281,50.113 167.368 M90.057 170.057 C 89.763 171.230,89.702 172.369,89.922 172.589 C 90.142 172.809,90.563 172.030,90.857 170.857 C 91.151 169.685,91.212 168.545,90.992 168.325 C 90.772 168.105,90.351 168.885,90.057 170.057 M348.800 173.107 C 348.800 175.791,347.524 175.978,329.200 175.978 C 311.249 175.978,309.641 175.760,309.507 173.307 C 309.423 171.752,309.379 171.738,309.020 173.147 C 308.190 176.407,310.416 176.800,329.696 176.800 C 349.145 176.800,350.793 176.474,349.835 172.814 C 349.268 170.644,348.800 170.776,348.800 173.107 M48.513 175.368 C 48.243 176.376,48.059 178.460,48.104 180.000 C 48.171 182.268,48.323 181.978,48.905 178.478 C 49.640 174.050,49.392 172.085,48.513 175.368 M88.898 174.400 C 88.832 175.060,88.578 176.500,88.334 177.600 C 87.950 179.329,88.013 179.407,88.798 178.177 C 89.297 177.394,89.551 175.954,89.362 174.977 C 89.173 174.000,88.964 173.740,88.898 174.400 M86.827 186.027 C 86.515 188.941,86.439 191.506,86.659 191.726 C 86.879 191.946,87.315 189.741,87.627 186.827 C 87.939 183.912,88.014 181.347,87.794 181.127 C 87.574 180.907,87.139 183.112,86.827 186.027 M46.909 188.512 C 46.242 193.373,46.337 208.327,47.060 212.400 C 47.375 214.176,47.628 208.747,47.629 200.200 C 47.629 183.204,47.631 183.239,46.909 188.512 M86.551 210.000 C 86.533 211.320,86.807 214.020,87.159 216.000 C 87.756 219.357,87.803 219.411,87.854 216.800 C 87.883 215.260,87.610 212.560,87.246 210.800 C 86.675 208.040,86.580 207.930,86.551 210.000 M48.056 220.467 C 48.087 222.190,48.434 224.320,48.828 225.200 C 49.295 226.245,49.377 225.273,49.063 222.400 C 48.487 217.115,47.979 216.139,48.056 220.467 M218.933 218.933 C 217.425 220.442,218.377 256.732,219.947 257.572 C 220.950 258.108,234.474 258.400,258.347 258.400 C 278.616 258.400,295.200 258.605,295.200 258.856 C 295.200 259.561,290.481 266.358,286.906 270.800 C 281.392 277.653,267.935 290.389,266.200 290.397 C 265.870 290.399,265.600 290.785,265.600 291.254 C 265.600 294.842,286.951 273.288,293.964 262.620 C 298.139 256.269,299.987 256.555,258.273 257.110 C 231.495 257.466,221.068 257.355,220.283 256.703 C 218.767 255.444,218.688 219.540,220.200 218.930 C 220.758 218.705,220.817 218.498,220.333 218.463 C 219.857 218.428,219.227 218.640,218.933 218.933 M351.809 218.992 C 352.611 219.559,352.775 233.333,352.609 285.853 C 352.494 322.234,352.672 352.000,353.005 352.000 C 354.309 352.000,353.307 218.962,352.000 218.606 C 351.102 218.361,351.054 218.458,351.809 218.992 M88.092 221.600 C 88.129 222.260,88.448 223.700,88.800 224.800 L 89.441 226.800 89.508 224.800 C 89.545 223.700,89.227 222.260,88.800 221.600 C 88.111 220.533,88.032 220.533,88.092 221.600 M49.612 230.067 C 49.619 231.350,49.992 232.940,50.442 233.600 C 51.028 234.460,51.107 233.893,50.724 231.600 C 50.059 227.631,49.596 226.993,49.612 230.067 M90.080 230.133 C 90.817 233.198,91.200 233.488,91.200 230.981 C 91.200 229.833,90.826 228.663,90.368 228.380 C 89.822 228.043,89.723 228.646,90.080 230.133 M91.701 235.200 C 92.449 238.211,94.269 242.168,94.275 240.800 C 94.279 240.140,93.589 238.160,92.742 236.400 C 91.896 234.640,91.427 234.100,91.701 235.200 M51.268 237.200 C 51.244 238.080,51.573 239.340,52.000 240.000 C 53.028 241.590,53.028 239.592,52.000 237.200 L 51.312 235.600 51.268 237.200 M52.856 242.953 C 52.825 243.917,53.160 244.928,53.600 245.200 C 54.546 245.785,54.546 245.002,53.600 242.800 C 52.937 241.257,52.910 241.263,52.856 242.953 M94.400 242.843 C 94.400 246.264,105.729 264.600,113.669 274.029 C 122.417 284.417,144.227 301.640,146.171 299.695 C 146.379 299.488,145.345 298.698,143.874 297.941 C 125.475 288.469,96.000 255.294,96.000 244.056 C 96.000 243.637,95.640 243.072,95.200 242.800 C 94.760 242.528,94.400 242.547,94.400 242.843 M54.425 248.000 C 54.425 248.660,54.773 249.740,55.200 250.400 C 55.889 251.467,55.975 251.467,55.975 250.400 C 55.975 249.740,55.627 248.660,55.200 248.000 C 54.511 246.933,54.425 246.933,54.425 248.000 M59.235 260.102 C 59.161 261.160,61.714 266.552,62.105 266.162 C 62.331 265.936,61.786 264.367,60.893 262.675 C 60.001 260.984,59.255 259.826,59.235 260.102 M64.000 270.624 C 64.000 271.790,74.918 289.335,76.805 291.200 C 77.027 291.420,78.156 292.860,79.314 294.400 C 82.473 298.603,84.511 300.800,85.251 300.800 C 85.615 300.800,84.820 299.630,83.484 298.200 C 79.460 293.895,74.106 286.437,69.301 278.447 C 64.676 270.754,64.000 269.756,64.000 270.624 M251.600 299.643 C 242.330 304.662,241.949 305.463,251.018 300.866 C 256.465 298.105,261.146 295.194,260.000 295.281 C 259.780 295.298,256.000 297.261,251.600 299.643 M147.200 300.380 C 147.200 301.161,162.161 307.417,166.003 308.242 C 168.960 308.878,167.742 308.316,158.400 304.733 C 154.660 303.299,150.890 301.647,150.022 301.063 C 148.421 299.984,147.200 299.689,147.200 300.380 M305.181 308.668 C 300.792 312.943,295.734 317.691,293.943 319.220 C 292.152 320.749,291.252 321.658,291.943 321.239 C 296.134 318.701,314.169 301.902,313.461 301.195 C 313.297 301.031,309.571 304.394,305.181 308.668 M91.557 307.776 C 95.054 311.393,98.084 314.183,98.291 313.976 C 98.497 313.769,98.506 313.510,98.311 313.400 C 98.115 313.290,95.085 310.500,91.577 307.200 L 85.200 301.200 91.557 307.776 M236.230 306.252 C 233.056 307.392,230.603 308.469,230.778 308.645 C 231.171 309.038,240.743 305.871,242.400 304.800 C 244.286 303.581,242.472 304.008,236.230 306.252 M170.400 309.600 C 173.483 310.587,175.128 310.587,173.600 309.600 C 172.940 309.173,171.500 308.855,170.400 308.892 L 168.400 308.959 170.400 309.600 M225.200 309.600 C 223.161 310.476,225.265 310.476,228.000 309.600 C 229.608 309.085,229.686 308.955,228.400 308.936 C 227.520 308.923,226.080 309.222,225.200 309.600 M177.200 311.200 C 178.520 311.536,180.500 311.817,181.600 311.826 L 183.600 311.841 181.600 311.200 C 180.500 310.848,178.520 310.566,177.200 310.574 L 174.800 310.589 177.200 311.200 M217.600 311.200 C 214.911 312.061,217.816 312.061,221.200 311.200 C 223.356 310.651,223.396 310.588,221.600 310.574 C 220.500 310.566,218.700 310.848,217.600 311.200 M191.761 313.031 C 196.249 313.403,203.269 313.407,207.361 313.038 C 213.943 312.445,213.003 312.367,199.200 312.361 C 184.820 312.354,184.238 312.406,191.761 313.031 M99.200 315.166 C 99.200 315.624,99.470 316.002,99.800 316.004 C 100.130 316.006,101.480 317.006,102.800 318.227 C 105.953 321.142,117.600 329.292,117.600 328.583 C 117.600 328.411,115.890 327.069,113.800 325.601 C 111.710 324.132,107.570 320.995,104.600 318.630 C 101.630 316.266,99.200 314.707,99.200 315.166 M282.800 326.937 C 279.280 329.326,272.355 333.308,267.410 335.784 C 262.466 338.261,258.566 340.433,258.744 340.611 C 259.536 341.402,286.120 326.633,289.533 323.505 C 291.634 321.580,287.851 323.508,282.800 326.937 M119.833 330.178 C 122.420 332.265,136.018 339.449,136.489 338.978 C 136.703 338.763,134.611 337.494,131.839 336.156 C 129.068 334.819,124.820 332.594,122.400 331.213 C 119.980 329.831,118.825 329.366,119.833 330.178 M139.200 340.332 C 140.300 340.920,142.100 341.625,143.200 341.899 C 144.300 342.172,143.760 341.704,142.000 340.858 C 138.380 339.117,136.136 338.696,139.200 340.332 M252.400 342.400 C 250.640 343.215,249.740 343.881,250.400 343.881 C 251.060 343.881,253.040 343.215,254.800 342.400 C 256.560 341.585,257.460 340.919,256.800 340.919 C 256.140 340.919,254.160 341.585,252.400 342.400 M150.400 344.800 C 151.060 345.227,152.140 345.575,152.800 345.575 C 153.867 345.575,153.867 345.489,152.800 344.800 C 152.140 344.373,151.060 344.025,150.400 344.025 C 149.333 344.025,149.333 344.111,150.400 344.800 M245.600 344.800 C 244.533 345.489,244.533 345.575,245.600 345.575 C 246.260 345.575,247.340 345.227,248.000 344.800 C 249.067 344.111,249.067 344.025,248.000 344.025 C 247.340 344.025,246.260 344.373,245.600 344.800 M156.000 346.400 C 156.660 346.827,157.740 347.175,158.400 347.175 C 159.467 347.175,159.467 347.089,158.400 346.400 C 157.740 345.973,156.660 345.625,156.000 345.625 C 154.933 345.625,154.933 345.711,156.000 346.400 M161.600 348.000 C 162.260 348.427,163.520 348.756,164.400 348.732 L 166.000 348.688 164.400 348.000 C 162.008 346.972,160.010 346.972,161.600 348.000 M234.000 348.000 L 232.400 348.688 234.000 348.732 C 234.880 348.756,236.140 348.427,236.800 348.000 C 238.390 346.972,236.392 346.972,234.000 348.000 M168.400 349.600 C 169.280 349.978,171.080 350.270,172.400 350.249 L 174.800 350.211 172.400 349.600 C 171.080 349.264,169.280 348.972,168.400 348.951 L 166.800 348.912 168.400 349.600 M226.000 349.600 L 223.600 350.211 226.000 350.249 C 227.320 350.270,229.120 349.978,230.000 349.600 L 231.600 348.912 230.000 348.951 C 229.120 348.972,227.320 349.264,226.000 349.600 M178.000 351.168 C 179.507 351.846,187.849 352.337,187.133 351.706 C 186.950 351.544,184.460 351.195,181.600 350.930 C 178.248 350.619,176.968 350.703,178.000 351.168 M214.400 351.200 L 210.800 351.760 214.800 351.824 C 217.000 351.859,219.520 351.578,220.400 351.200 C 222.418 350.333,219.977 350.333,214.400 351.200 M197.811 352.574 C 199.027 352.758,200.827 352.753,201.811 352.563 C 202.795 352.373,201.800 352.223,199.600 352.229 C 197.400 352.235,196.595 352.390,197.811 352.574 M324.245 352.598 C 329.440 352.737,337.720 352.737,342.645 352.597 C 347.570 352.457,343.320 352.342,333.200 352.343 C 323.080 352.344,319.050 352.458,324.245 352.598 " stroke="none" fill="#b0cf55" fill-rule="evenodd"></path><path id="path3" d="M194.633 48.594 C 197.622 48.748,202.302 48.747,205.033 48.591 C 207.765 48.436,205.320 48.309,199.600 48.311 C 193.880 48.312,191.645 48.440,194.633 48.594 M182.600 49.351 C 183.370 49.553,184.630 49.553,185.400 49.351 C 186.170 49.150,185.540 48.986,184.000 48.986 C 182.460 48.986,181.830 49.150,182.600 49.351 M213.409 49.366 C 214.404 49.557,215.844 49.550,216.609 49.350 C 217.374 49.149,216.560 48.993,214.800 49.002 C 213.040 49.011,212.414 49.174,213.409 49.366 M175.809 50.166 C 176.804 50.357,178.244 50.350,179.009 50.150 C 179.774 49.949,178.960 49.793,177.200 49.802 C 175.440 49.811,174.814 49.974,175.809 50.166 M220.200 50.151 C 220.970 50.353,222.230 50.353,223.000 50.151 C 223.770 49.950,223.140 49.786,221.600 49.786 C 220.060 49.786,219.430 49.950,220.200 50.151 M241.667 54.687 C 241.850 54.846,243.080 55.216,244.400 55.512 C 246.153 55.904,246.476 55.830,245.600 55.237 C 244.520 54.506,240.864 53.995,241.667 54.687 M150.000 56.428 C 148.000 57.392,147.933 57.503,149.600 57.095 C 151.867 56.541,154.415 55.243,153.200 55.260 C 152.760 55.267,151.320 55.792,150.000 56.428 M249.252 57.130 C 253.289 58.888,255.852 59.318,252.400 57.658 C 250.640 56.811,248.660 56.106,248.000 56.091 C 247.340 56.075,247.903 56.543,249.252 57.130 M138.400 60.800 C 136.860 61.643,135.960 62.333,136.400 62.333 C 136.840 62.333,138.460 61.643,140.000 60.800 C 141.540 59.957,142.440 59.267,142.000 59.267 C 141.560 59.267,139.940 59.957,138.400 60.800 M263.267 62.669 C 263.450 62.817,266.840 64.618,270.800 66.672 C 274.760 68.725,277.280 69.834,276.400 69.137 C 274.663 67.761,264.388 62.400,263.487 62.400 C 263.182 62.400,263.083 62.521,263.267 62.669 M121.800 69.253 C 118.025 71.516,117.153 72.698,120.600 70.882 C 123.018 69.607,126.233 67.261,125.600 67.233 C 125.380 67.223,123.670 68.132,121.800 69.253 M278.400 70.635 C 278.400 70.817,280.920 72.641,284.000 74.689 C 287.080 76.737,289.600 78.243,289.600 78.036 C 289.600 77.829,287.530 76.269,285.000 74.569 C 279.397 70.805,278.400 70.211,278.400 70.635 M105.676 80.483 C 102.001 83.389,96.251 88.479,92.897 91.795 L 86.800 97.822 92.953 92.158 C 96.337 89.043,101.917 84.276,105.353 81.565 C 112.177 76.179,113.314 75.200,112.739 75.200 C 112.529 75.200,109.351 77.578,105.676 80.483 M293.600 81.330 C 298.436 85.425,313.279 100.230,317.534 105.200 C 320.823 109.042,320.852 109.058,318.289 105.600 C 314.146 100.009,300.465 86.185,294.962 82.028 C 291.675 79.545,291.215 79.310,293.600 81.330 M189.400 86.965 C 190.390 87.155,192.010 87.155,193.000 86.965 C 193.990 86.774,193.180 86.618,191.200 86.618 C 189.220 86.618,188.410 86.774,189.400 86.965 M206.200 86.965 C 207.190 87.155,208.810 87.155,209.800 86.965 C 210.790 86.774,209.980 86.618,208.000 86.618 C 206.020 86.618,205.210 86.774,206.200 86.965 M181.000 87.751 C 181.770 87.953,183.030 87.953,183.800 87.751 C 184.570 87.550,183.940 87.386,182.400 87.386 C 180.860 87.386,180.230 87.550,181.000 87.751 M214.600 87.751 C 215.370 87.953,216.630 87.953,217.400 87.751 C 218.170 87.550,217.540 87.386,216.000 87.386 C 214.460 87.386,213.830 87.550,214.600 87.751 M224.800 89.600 C 227.535 90.476,229.639 90.476,227.600 89.600 C 226.720 89.222,225.280 88.923,224.400 88.936 C 223.114 88.955,223.192 89.085,224.800 89.600 M165.600 91.237 C 164.724 91.830,165.047 91.904,166.800 91.512 C 169.742 90.854,170.380 90.396,168.333 90.412 C 167.490 90.419,166.260 90.790,165.600 91.237 M146.712 99.100 C 134.290 105.695,122.247 115.022,114.766 123.843 C 112.024 127.076,113.007 126.305,118.150 121.189 C 127.330 112.057,135.987 105.633,146.956 99.814 C 151.710 97.292,155.240 95.229,154.800 95.229 C 154.360 95.230,150.720 96.972,146.712 99.100 M84.332 101.000 C 80.664 105.005,78.910 107.200,79.379 107.200 C 79.614 107.200,81.497 105.220,83.565 102.800 C 87.656 98.011,88.166 96.815,84.332 101.000 M253.600 100.359 C 253.600 100.579,254.680 101.317,256.000 102.000 C 257.320 102.683,258.400 103.061,258.400 102.841 C 258.400 102.621,257.320 101.883,256.000 101.200 C 254.680 100.517,253.600 100.139,253.600 100.359 M259.200 103.448 C 259.200 103.635,260.730 104.796,262.600 106.030 C 264.470 107.263,265.578 107.761,265.062 107.136 C 264.069 105.935,259.200 102.871,259.200 103.448 M269.600 110.933 C 271.580 112.612,276.080 116.681,279.600 119.974 L 286.000 125.962 280.800 120.549 C 277.940 117.572,273.440 113.503,270.800 111.508 C 267.251 108.826,266.939 108.676,269.600 110.933 M74.569 113.400 C 70.805 119.003,70.211 120.000,70.635 120.000 C 70.817 120.000,72.641 117.480,74.689 114.400 C 76.737 111.320,78.243 108.800,78.036 108.800 C 77.829 108.800,76.269 110.870,74.569 113.400 M322.400 112.000 C 323.340 113.320,324.289 114.400,324.509 114.400 C 324.729 114.400,324.140 113.320,323.200 112.000 C 322.260 110.680,321.311 109.600,321.091 109.600 C 320.871 109.600,321.460 110.680,322.400 112.000 M330.400 124.400 C 331.852 127.040,333.405 129.560,333.850 130.000 C 334.295 130.440,333.482 128.640,332.042 126.000 C 330.602 123.360,329.050 120.840,328.592 120.400 C 328.134 119.960,328.948 121.760,330.400 124.400 M66.057 126.922 C 64.913 128.969,64.138 130.804,64.335 131.001 C 64.531 131.198,65.623 129.523,66.760 127.280 C 69.346 122.176,68.850 121.924,66.057 126.922 M289.580 131.600 C 295.057 138.922,296.350 140.102,292.047 133.852 C 290.174 131.131,287.910 128.251,287.016 127.452 C 286.122 126.654,287.276 128.520,289.580 131.600 M105.786 135.000 C 103.715 137.991,103.041 139.200,103.446 139.200 C 103.634 139.200,104.740 137.760,105.905 136.000 C 108.272 132.423,108.169 131.558,105.786 135.000 M336.067 134.800 C 336.067 135.240,336.757 136.860,337.600 138.400 C 338.443 139.940,339.133 140.840,339.133 140.400 C 339.133 139.960,338.443 138.340,337.600 136.800 C 336.757 135.260,336.067 134.360,336.067 134.800 M60.543 138.037 C 58.664 141.978,58.928 142.649,60.893 138.925 C 61.786 137.233,62.374 135.708,62.201 135.535 C 62.028 135.362,61.282 136.488,60.543 138.037 M296.400 141.600 C 297.083 142.920,297.821 144.000,298.041 144.000 C 298.261 144.000,297.883 142.920,297.200 141.600 C 296.517 140.280,295.779 139.200,295.559 139.200 C 295.339 139.200,295.717 140.280,296.400 141.600 M57.315 145.809 C 55.455 150.680,55.759 151.608,57.672 146.895 C 58.543 144.747,59.115 142.849,58.944 142.677 C 58.772 142.505,58.039 143.914,57.315 145.809 M300.564 149.178 C 301.745 151.585,302.846 153.421,303.009 153.257 C 303.369 152.898,299.334 144.800,298.795 144.800 C 298.587 144.800,299.384 146.770,300.564 149.178 M98.000 148.000 C 97.317 149.320,96.939 150.400,97.159 150.400 C 97.379 150.400,98.117 149.320,98.800 148.000 C 99.483 146.680,99.861 145.600,99.641 145.600 C 99.421 145.600,98.683 146.680,98.000 148.000 M342.923 152.000 C 343.834 155.604,345.704 160.005,345.169 157.288 C 344.918 156.017,344.197 153.857,343.565 152.488 C 342.701 150.617,342.542 150.496,342.923 152.000 M93.192 158.143 C 92.515 159.762,92.066 161.399,92.194 161.782 C 92.322 162.165,93.033 160.840,93.775 158.839 C 95.387 154.490,94.941 153.957,93.192 158.143 M90.074 167.464 C 89.373 169.874,88.828 172.331,88.861 172.923 C 88.895 173.515,89.606 171.681,90.441 168.847 C 91.277 166.013,91.823 163.556,91.654 163.388 C 91.486 163.219,90.775 165.053,90.074 167.464 M308.112 168.000 C 308.112 168.660,308.422 169.920,308.800 170.800 C 309.233 171.809,309.488 171.956,309.488 171.200 C 309.488 170.540,309.178 169.280,308.800 168.400 C 308.367 167.391,308.112 167.244,308.112 168.000 M347.725 170.000 C 347.993 171.760,348.344 173.350,348.506 173.533 C 349.112 174.221,348.658 169.936,347.963 168.400 C 347.457 167.285,347.385 167.770,347.725 170.000 M49.267 176.067 C 48.966 178.333,48.881 180.348,49.078 180.545 C 49.275 180.741,49.690 179.056,50.000 176.800 C 50.310 174.544,50.395 172.529,50.189 172.322 C 49.982 172.116,49.567 173.801,49.267 176.067 M87.713 176.168 C 87.443 177.176,87.253 178.720,87.291 179.600 C 87.329 180.480,87.690 179.796,88.093 178.079 C 88.873 174.755,88.540 173.081,87.713 176.168 M320.156 175.797 C 324.861 175.938,332.781 175.938,337.756 175.798 C 342.730 175.657,338.880 175.542,329.200 175.541 C 319.520 175.540,315.450 175.655,320.156 175.797 M48.248 186.800 C 48.252 189.440,48.402 190.424,48.580 188.986 C 48.758 187.548,48.754 185.388,48.572 184.186 C 48.389 182.984,48.243 184.160,48.248 186.800 M85.922 200.000 C 85.922 206.820,86.045 209.610,86.195 206.200 C 86.345 202.790,86.345 197.210,86.195 193.800 C 86.045 190.390,85.922 193.180,85.922 200.000 M47.488 200.000 C 47.488 204.180,47.623 205.890,47.788 203.800 C 47.953 201.710,47.953 198.290,47.788 196.200 C 47.623 194.110,47.488 195.820,47.488 200.000 M48.248 213.200 C 48.252 215.840,48.402 216.824,48.580 215.386 C 48.758 213.948,48.754 211.788,48.572 210.586 C 48.389 209.384,48.243 210.560,48.248 213.200 M252.940 219.000 C 270.837 219.120,300.357 219.120,318.540 219.000 C 336.723 218.880,322.080 218.782,286.000 218.782 C 249.920 218.782,235.043 218.880,252.940 219.000 M87.256 220.867 C 87.287 221.930,87.639 223.520,88.037 224.400 C 88.543 225.515,88.615 225.030,88.275 222.800 C 87.709 219.086,87.175 218.071,87.256 220.867 M219.378 237.240 C 219.161 259.770,217.541 257.645,234.760 257.429 L 248.400 257.257 234.400 256.829 L 220.400 256.400 219.978 237.600 L 219.555 218.800 219.378 237.240 M352.195 284.986 L 352.000 351.171 333.000 351.401 L 314.000 351.630 333.025 351.815 C 347.647 351.957,352.139 351.769,352.432 351.000 C 352.642 350.450,352.718 320.480,352.602 284.400 L 352.391 218.800 352.195 284.986 M88.936 227.600 C 88.923 228.480,89.222 229.920,89.600 230.800 C 90.476 232.839,90.476 230.735,89.600 228.000 C 89.085 226.392,88.955 226.314,88.936 227.600 M92.000 238.169 C 92.000 239.301,94.325 244.800,94.804 244.800 C 95.015 244.800,94.591 243.270,93.863 241.400 C 92.389 237.613,92.000 236.938,92.000 238.169 M99.600 255.200 C 100.283 256.520,101.021 257.600,101.241 257.600 C 101.461 257.600,101.083 256.520,100.400 255.200 C 99.717 253.880,98.979 252.800,98.759 252.800 C 98.539 252.800,98.917 253.880,99.600 255.200 M260.247 256.598 C 265.882 256.736,274.882 256.735,280.247 256.597 C 285.611 256.459,281.000 256.346,270.000 256.347 C 259.000 256.347,254.611 256.460,260.247 256.598 M295.600 258.724 C 295.600 259.782,295.870 260.480,296.200 260.276 C 296.530 260.072,296.800 259.207,296.800 258.353 C 296.800 257.499,296.530 256.800,296.200 256.800 C 295.870 256.800,295.600 257.666,295.600 258.724 M59.267 258.800 C 59.267 259.240,59.957 260.860,60.800 262.400 C 61.643 263.940,62.333 264.840,62.333 264.400 C 62.333 263.960,61.643 262.340,60.800 260.800 C 59.957 259.260,59.267 258.360,59.267 258.800 M104.555 263.262 C 105.350 264.615,106.511 266.145,107.136 266.662 C 107.761 267.178,107.263 266.070,106.030 264.200 C 103.440 260.273,102.419 259.624,104.555 263.262 M287.204 271.595 C 284.931 274.452,279.770 279.907,275.735 283.718 C 271.701 287.529,270.200 289.179,272.400 287.384 C 278.769 282.190,293.341 266.400,291.765 266.400 C 291.530 266.400,289.478 268.738,287.204 271.595 M110.175 270.800 C 111.523 272.560,114.851 276.340,117.572 279.200 C 121.744 283.586,121.552 283.273,116.345 277.200 C 109.131 268.787,106.719 266.284,110.175 270.800 M66.800 274.400 C 67.483 275.720,68.221 276.800,68.441 276.800 C 68.661 276.800,68.283 275.720,67.600 274.400 C 66.917 273.080,66.179 272.000,65.959 272.000 C 65.739 272.000,66.117 273.080,66.800 274.400 M69.226 278.400 C 70.981 281.587,77.035 290.451,77.766 290.903 C 78.621 291.431,70.809 279.421,69.374 278.000 C 68.831 277.463,68.782 277.594,69.226 278.400 M123.200 284.250 C 123.200 284.388,124.370 285.558,125.800 286.850 L 128.400 289.200 126.050 286.600 C 123.860 284.176,123.200 283.632,123.200 284.250 M129.087 289.418 C 129.720 290.442,134.400 293.905,134.400 293.349 C 134.400 293.152,133.078 291.982,131.463 290.750 C 129.848 289.518,128.779 288.918,129.087 289.418 M263.775 293.136 C 259.052 296.405,257.929 297.550,261.412 295.545 C 264.099 293.998,268.713 290.446,268.000 290.473 C 267.780 290.481,265.879 291.680,263.775 293.136 M80.791 295.189 C 82.180 296.943,83.735 298.636,84.245 298.952 C 84.756 299.267,83.786 297.832,82.091 295.763 C 80.395 293.693,78.840 292.000,78.636 292.000 C 78.432 292.000,79.402 293.435,80.791 295.189 M140.000 297.159 C 140.000 297.379,141.080 298.117,142.400 298.800 C 143.720 299.483,144.800 299.861,144.800 299.641 C 144.800 299.421,143.720 298.683,142.400 298.000 C 141.080 297.317,140.000 296.939,140.000 297.159 M85.600 300.487 C 85.600 300.901,88.390 303.931,91.800 307.220 L 98.000 313.200 92.000 306.823 C 88.700 303.315,85.910 300.285,85.800 300.089 C 85.690 299.894,85.600 300.072,85.600 300.487 M246.000 303.222 C 242.480 304.918,239.894 306.327,240.252 306.353 C 241.222 306.423,252.800 300.978,252.800 300.452 C 252.800 299.892,253.528 299.595,246.000 303.222 M307.180 306.070 C 299.844 313.517,292.037 319.974,283.600 325.572 C 277.595 329.556,273.973 332.328,276.800 330.776 C 285.135 326.200,298.506 315.676,307.200 306.849 L 313.200 300.758 313.617 325.779 L 314.034 350.800 314.217 325.400 C 314.318 311.430,314.121 300.000,313.780 300.000 C 313.439 300.000,310.469 302.732,307.180 306.070 M170.800 310.400 C 171.680 310.778,173.120 311.077,174.000 311.064 C 175.286 311.045,175.208 310.915,173.600 310.400 C 170.865 309.524,168.761 309.524,170.800 310.400 M224.800 310.400 C 223.192 310.915,223.114 311.045,224.400 311.064 C 225.280 311.077,226.720 310.778,227.600 310.400 C 229.639 309.524,227.535 309.524,224.800 310.400 M178.000 311.979 C 179.528 312.656,184.628 313.113,183.933 312.511 C 183.750 312.353,181.980 312.008,180.000 311.747 C 177.596 311.429,176.932 311.506,178.000 311.979 M216.800 312.000 C 214.087 312.571,214.074 312.590,216.400 312.615 C 217.720 312.629,219.700 312.352,220.800 312.000 C 223.423 311.160,220.791 311.160,216.800 312.000 M98.400 313.275 C 98.400 313.547,99.210 314.412,100.200 315.197 C 101.190 315.982,103.890 318.135,106.200 319.980 C 108.510 321.826,110.400 323.177,110.400 322.982 C 110.400 322.788,107.700 320.413,104.400 317.704 C 101.100 314.996,98.400 313.002,98.400 313.275 M188.600 313.365 C 189.590 313.555,191.210 313.555,192.200 313.365 C 193.190 313.174,192.380 313.018,190.400 313.018 C 188.420 313.018,187.610 313.174,188.600 313.365 M207.000 313.365 C 207.990 313.555,209.610 313.555,210.600 313.365 C 211.590 313.174,210.780 313.018,208.800 313.018 C 206.820 313.018,206.010 313.174,207.000 313.365 M197.414 314.180 C 198.852 314.358,201.012 314.354,202.214 314.172 C 203.416 313.989,202.240 313.843,199.600 313.848 C 196.960 313.852,195.976 314.002,197.414 314.180 M115.378 326.593 C 117.518 328.368,126.493 333.590,125.485 332.474 C 125.202 332.160,122.322 330.302,119.085 328.345 C 115.848 326.388,114.180 325.599,115.378 326.593 M271.000 333.253 C 268.910 334.341,267.200 335.410,267.200 335.629 C 267.200 335.848,269.000 335.115,271.200 334.000 C 273.400 332.885,275.200 331.799,275.200 331.587 C 275.200 331.057,275.272 331.029,271.000 333.253 M126.400 333.195 C 126.400 333.734,134.498 337.769,134.857 337.409 C 135.021 337.246,133.185 336.145,130.778 334.964 C 128.370 333.784,126.400 332.987,126.400 333.195 M146.000 342.342 C 147.760 343.189,149.740 343.894,150.400 343.909 C 151.771 343.941,147.677 342.053,144.748 341.303 C 143.677 341.028,144.240 341.496,146.000 342.342 M158.400 346.363 C 159.060 346.810,160.290 347.181,161.133 347.188 C 163.180 347.204,162.542 346.746,159.600 346.088 C 157.847 345.696,157.524 345.770,158.400 346.363 M237.600 346.400 C 235.992 346.915,235.914 347.045,237.200 347.064 C 238.080 347.077,239.520 346.778,240.400 346.400 C 242.439 345.524,240.335 345.524,237.600 346.400 M164.400 347.963 C 165.936 348.658,170.221 349.112,169.533 348.506 C 169.350 348.344,167.760 347.993,166.000 347.725 C 163.770 347.385,163.285 347.457,164.400 347.963 M175.809 350.166 C 176.804 350.357,178.244 350.350,179.009 350.150 C 179.774 349.949,178.960 349.793,177.200 349.802 C 175.440 349.811,174.814 349.974,175.809 350.166 M220.200 350.151 C 220.970 350.353,222.230 350.353,223.000 350.151 C 223.770 349.950,223.140 349.786,221.600 349.786 C 220.060 349.786,219.430 349.950,220.200 350.151 M181.800 350.951 C 182.570 351.153,183.830 351.153,184.600 350.951 C 185.370 350.750,184.740 350.586,183.200 350.586 C 181.660 350.586,181.030 350.750,181.800 350.951 M213.800 350.951 C 214.570 351.153,215.830 351.153,216.600 350.951 C 217.370 350.750,216.740 350.586,215.200 350.586 C 213.660 350.586,213.030 350.750,213.800 350.951 M193.000 351.795 C 196.410 351.945,201.990 351.945,205.400 351.795 C 208.810 351.645,206.020 351.522,199.200 351.522 C 192.380 351.522,189.590 351.645,193.000 351.795 " stroke="none" fill="#cbdf8f" fill-rule="evenodd"></path><path id="path4" d="M183.200 49.520 C 181.220 49.784,188.600 50.000,199.600 50.000 C 210.600 50.000,217.620 49.766,215.200 49.479 C 209.783 48.838,188.110 48.866,183.200 49.520 M172.000 51.200 C 170.040 51.828,170.048 51.842,172.400 51.908 C 173.720 51.945,175.340 51.627,176.000 51.200 C 177.516 50.220,175.059 50.220,172.000 51.200 M222.800 51.200 C 223.680 51.578,225.480 51.870,226.800 51.849 L 229.200 51.811 226.800 51.200 C 225.480 50.864,223.680 50.572,222.800 50.551 L 221.200 50.512 222.800 51.200 M164.400 52.800 C 162.971 53.414,163.031 53.494,164.953 53.544 C 166.137 53.575,167.328 53.240,167.600 52.800 C 168.190 51.845,166.623 51.845,164.400 52.800 M231.200 52.800 C 231.860 53.227,233.300 53.545,234.400 53.508 L 236.400 53.441 234.400 52.800 C 231.317 51.813,229.672 51.813,231.200 52.800 M158.000 54.400 L 156.400 55.088 158.000 55.132 C 158.880 55.156,160.140 54.827,160.800 54.400 C 162.390 53.372,160.392 53.372,158.000 54.400 M237.600 54.400 C 238.260 54.827,239.520 55.156,240.400 55.132 L 242.000 55.088 240.400 54.400 C 238.008 53.372,236.010 53.372,237.600 54.400 M152.800 56.000 C 151.733 56.689,151.733 56.775,152.800 56.775 C 153.460 56.775,154.540 56.427,155.200 56.000 C 156.267 55.311,156.267 55.225,155.200 55.225 C 154.540 55.225,153.460 55.573,152.800 56.000 M243.600 56.000 C 243.872 56.440,244.883 56.775,245.847 56.744 C 247.537 56.690,247.543 56.663,246.000 56.000 C 243.798 55.054,243.015 55.054,243.600 56.000 M137.600 61.888 C 129.611 65.528,127.506 66.652,118.925 71.866 C 113.422 75.209,104.000 82.183,104.000 82.913 C 104.000 83.144,104.990 82.563,106.200 81.621 C 112.314 76.860,124.669 69.192,132.079 65.559 C 136.656 63.315,141.025 61.146,141.789 60.740 C 142.553 60.333,143.702 60.000,144.342 60.000 C 144.982 60.000,145.728 59.640,146.000 59.200 C 146.827 57.863,145.515 58.282,137.600 61.888 M253.600 59.320 C 270.969 67.378,275.436 69.745,284.200 75.531 C 285.410 76.330,286.400 76.797,286.400 76.569 C 286.400 74.874,259.239 60.217,253.600 58.870 L 251.600 58.392 253.600 59.320 M287.200 77.469 C 287.200 77.887,287.651 78.402,288.203 78.614 C 288.755 78.825,291.275 80.684,293.803 82.743 C 296.331 84.803,298.385 86.198,298.366 85.844 C 298.347 85.490,296.481 83.760,294.220 82.000 C 288.002 77.161,287.200 76.644,287.200 77.469 M92.784 92.784 C 87.416 98.123,83.239 102.706,83.501 102.968 C 83.763 103.230,84.793 102.407,85.789 101.139 C 87.931 98.413,96.013 90.301,100.323 86.551 C 101.998 85.094,103.182 83.716,102.955 83.489 C 102.729 83.262,98.151 87.445,92.784 92.784 M184.629 86.256 C 183.874 86.555,190.430 86.800,199.197 86.800 C 207.963 86.800,214.521 86.555,213.768 86.256 C 211.985 85.548,186.416 85.548,184.629 86.256 M299.227 86.535 C 299.212 86.830,302.020 89.890,305.466 93.335 C 320.254 108.121,332.964 127.368,339.596 145.018 C 340.385 147.118,341.192 148.674,341.390 148.477 C 343.029 146.838,329.070 120.772,320.270 109.040 C 315.807 103.090,299.283 85.418,299.227 86.535 M174.800 88.000 L 173.200 88.688 174.800 88.664 C 175.680 88.651,177.300 88.352,178.400 88.000 L 180.400 87.359 178.400 87.336 C 177.300 87.323,175.680 87.622,174.800 88.000 M220.000 88.000 C 223.059 88.980,225.516 88.980,224.000 88.000 C 223.340 87.573,221.720 87.255,220.400 87.292 C 218.048 87.358,218.040 87.372,220.000 88.000 M168.800 89.600 C 167.210 90.628,169.208 90.628,171.600 89.600 L 173.200 88.912 171.600 88.868 C 170.720 88.844,169.460 89.173,168.800 89.600 M227.600 89.600 C 229.992 90.628,231.990 90.628,230.400 89.600 C 229.740 89.173,228.480 88.844,227.600 88.868 L 226.000 88.912 227.600 89.600 M163.200 91.200 C 162.133 91.889,162.133 91.975,163.200 91.975 C 163.860 91.975,164.940 91.627,165.600 91.200 C 166.667 90.511,166.667 90.425,165.600 90.425 C 164.940 90.425,163.860 90.773,163.200 91.200 M232.800 91.200 C 233.460 91.627,234.540 91.975,235.200 91.975 C 236.267 91.975,236.267 91.889,235.200 91.200 C 234.540 90.773,233.460 90.425,232.800 90.425 C 231.733 90.425,231.733 90.511,232.800 91.200 M156.907 93.306 C 155.426 93.952,154.383 94.650,154.590 94.857 C 154.797 95.064,156.549 94.531,158.483 93.673 C 160.418 92.815,161.460 92.117,160.800 92.122 C 160.140 92.127,158.388 92.659,156.907 93.306 M237.600 92.800 C 238.260 93.227,239.340 93.575,240.000 93.575 C 241.067 93.575,241.067 93.489,240.000 92.800 C 239.340 92.373,238.260 92.025,237.600 92.025 C 236.533 92.025,236.533 92.111,237.600 92.800 M242.000 94.400 C 242.272 94.840,242.837 95.200,243.256 95.200 C 248.110 95.200,267.916 108.172,279.200 118.741 L 285.200 124.361 280.400 119.306 C 271.775 110.224,257.127 99.941,246.134 95.250 C 241.736 93.373,241.312 93.286,242.000 94.400 M146.000 98.632 C 139.374 102.136,130.765 107.758,127.230 110.888 C 126.114 111.877,124.390 113.384,123.400 114.237 C 122.410 115.090,121.600 116.046,121.600 116.361 C 121.600 116.677,123.850 114.984,126.600 112.599 C 133.042 107.013,137.712 103.878,146.712 99.100 C 150.720 96.972,153.640 95.234,153.200 95.239 C 152.760 95.243,149.520 96.770,146.000 98.632 M80.656 106.200 C 76.487 110.689,64.107 130.762,62.153 136.200 C 61.057 139.252,62.360 137.284,65.598 131.000 C 69.483 123.461,74.635 115.276,79.698 108.600 C 83.510 103.573,83.822 102.791,80.656 106.200 M113.971 123.507 C 107.094 130.655,92.347 154.213,93.824 155.691 C 94.003 155.869,95.528 153.222,97.213 149.808 C 101.303 141.521,106.133 134.079,111.623 127.608 C 115.930 122.531,117.429 119.913,113.971 123.507 M285.600 125.352 C 285.600 125.792,286.303 126.788,287.162 127.566 C 291.253 131.268,302.183 149.473,304.671 156.730 C 305.186 158.231,305.815 159.251,306.070 158.997 C 306.873 158.194,299.196 143.130,294.362 136.022 C 289.328 128.621,285.600 124.081,285.600 125.352 M59.749 141.462 C 57.935 145.994,58.095 146.739,60.043 142.834 C 60.912 141.093,61.504 139.313,61.360 138.880 C 61.215 138.446,60.490 139.608,59.749 141.462 M56.093 150.935 C 56.042 151.449,55.767 152.529,55.482 153.335 C 55.081 154.472,55.187 154.595,55.957 153.885 C 56.503 153.382,56.778 152.302,56.568 151.485 C 56.358 150.668,56.144 150.421,56.093 150.935 M343.256 155.753 C 343.225 156.717,343.560 157.728,344.000 158.000 C 344.946 158.585,344.946 157.802,344.000 155.600 C 343.337 154.057,343.310 154.063,343.256 155.753 M54.057 157.257 C 53.763 158.430,53.702 159.569,53.922 159.789 C 54.142 160.009,54.563 159.230,54.857 158.057 C 55.151 156.885,55.212 155.745,54.992 155.525 C 54.772 155.305,54.351 156.085,54.057 157.257 M344.892 160.800 C 344.855 161.900,345.173 163.340,345.600 164.000 C 346.587 165.528,346.587 163.883,345.600 160.800 L 344.959 158.800 344.892 160.800 M306.425 160.800 C 306.425 161.460,306.773 162.540,307.200 163.200 C 307.889 164.267,307.975 164.267,307.975 163.200 C 307.975 162.540,307.627 161.460,307.200 160.800 C 306.511 159.733,306.425 159.733,306.425 160.800 M52.524 162.694 C 52.193 163.956,52.111 165.178,52.342 165.409 C 52.986 166.053,53.774 163.477,53.431 161.847 C 53.207 160.780,52.968 161.003,52.524 162.694 M308.068 165.600 C 308.093 166.260,308.422 167.520,308.800 168.400 L 309.488 170.000 309.532 168.400 C 309.556 167.520,309.227 166.260,308.800 165.600 C 308.111 164.533,308.029 164.533,308.068 165.600 M89.333 166.933 C 89.040 167.227,88.823 168.217,88.851 169.133 C 88.897 170.666,88.963 170.646,89.668 168.884 C 90.451 166.925,90.289 165.978,89.333 166.933 M346.492 168.000 C 346.455 169.100,346.773 170.540,347.200 171.200 C 348.187 172.728,348.187 171.083,347.200 168.000 L 346.559 166.000 346.492 168.000 M50.906 169.882 C 50.571 171.577,50.483 173.149,50.709 173.376 C 51.316 173.982,52.194 169.970,51.829 168.263 C 51.640 167.380,51.274 168.022,50.906 169.882 M309.685 171.053 C 309.361 175.058,310.044 175.200,329.581 175.200 C 339.659 175.200,348.073 174.930,348.277 174.600 C 348.482 174.270,340.297 174.102,330.089 174.227 L 311.528 174.455 310.649 172.227 C 310.166 171.002,309.732 170.474,309.685 171.053 M87.747 173.106 C 87.446 173.890,87.223 175.131,87.251 175.865 C 87.284 176.749,87.562 176.548,88.074 175.269 C 88.498 174.206,88.721 172.964,88.570 172.509 C 88.418 172.054,88.048 172.322,87.747 173.106 M49.169 181.169 C 48.860 183.646,48.800 185.867,49.037 186.104 C 49.274 186.341,49.721 184.508,50.031 182.031 C 50.340 179.554,50.400 177.333,50.163 177.096 C 49.926 176.859,49.479 178.692,49.169 181.169 M86.179 180.800 C 85.872 181.900,85.656 184.060,85.699 185.600 C 85.772 188.292,85.803 188.261,86.494 184.800 C 87.301 180.755,87.056 177.647,86.179 180.800 M48.303 200.000 C 48.303 205.060,48.432 207.130,48.591 204.600 C 48.750 202.070,48.750 197.930,48.591 195.400 C 48.432 192.870,48.303 194.940,48.303 200.000 M85.096 200.000 C 85.096 204.620,85.228 206.510,85.390 204.200 C 85.551 201.890,85.551 198.110,85.390 195.800 C 85.228 193.490,85.096 195.380,85.096 200.000 M85.748 214.800 C 85.729 216.560,86.022 218.720,86.400 219.600 L 87.088 221.200 87.098 219.600 C 87.103 218.720,86.810 216.560,86.446 214.800 L 85.784 211.600 85.748 214.800 M48.941 215.600 C 48.914 216.920,49.190 219.440,49.554 221.200 L 50.216 224.400 50.213 221.200 C 50.212 219.440,49.936 216.920,49.600 215.600 L 48.989 213.200 48.941 215.600 M220.185 237.800 L 220.400 256.400 235.600 256.428 L 250.800 256.456 235.800 256.210 L 220.800 255.965 220.800 237.982 L 220.800 220.000 285.995 220.000 L 351.191 220.000 351.400 285.800 L 351.609 351.600 351.805 285.400 L 352.000 219.200 285.985 219.200 L 219.971 219.200 220.185 237.800 M87.312 224.400 C 87.312 225.280,87.622 226.720,88.000 227.600 L 88.688 229.200 88.688 227.600 C 88.688 226.720,88.378 225.280,88.000 224.400 L 87.312 222.800 87.312 224.400 M50.492 227.600 C 50.630 230.862,51.830 233.575,51.908 230.800 C 51.945 229.480,51.627 227.860,51.200 227.200 C 50.561 226.211,50.436 226.282,50.492 227.600 M88.856 230.953 C 88.825 231.917,89.160 232.928,89.600 233.200 C 90.546 233.785,90.546 233.002,89.600 230.800 C 88.937 229.257,88.910 229.263,88.856 230.953 M52.068 235.200 C 52.093 235.860,52.422 237.120,52.800 238.000 L 53.488 239.600 53.532 238.000 C 53.556 237.120,53.227 235.860,52.800 235.200 C 52.111 234.133,52.029 234.133,52.068 235.200 M53.668 240.800 C 53.693 241.460,54.022 242.720,54.400 243.600 L 55.088 245.200 55.132 243.600 C 55.156 242.720,54.827 241.460,54.400 240.800 C 53.711 239.733,53.629 239.733,53.668 240.800 M93.600 244.418 C 93.600 248.797,107.838 270.293,116.639 279.200 C 119.841 282.441,119.367 281.715,114.840 276.443 C 107.509 267.905,100.904 258.069,97.041 249.936 C 94.513 244.612,93.600 243.148,93.600 244.418 M55.225 246.400 C 55.225 247.060,55.573 248.140,56.000 248.800 C 56.689 249.867,56.775 249.867,56.775 248.800 C 56.775 248.140,56.427 247.060,56.000 246.400 C 55.311 245.333,55.225 245.333,55.225 246.400 M56.800 250.744 C 56.800 251.903,61.049 261.618,61.401 261.265 C 61.623 261.043,61.039 259.232,60.103 257.239 C 59.166 255.247,58.400 253.095,58.400 252.456 C 58.400 251.817,58.040 251.072,57.600 250.800 C 57.160 250.528,56.800 250.503,56.800 250.744 M293.000 256.564 C 297.911 256.982,297.877 257.759,292.618 265.469 C 283.484 278.859,265.964 293.976,250.247 302.029 C 247.744 303.312,245.819 304.485,245.970 304.637 C 246.671 305.337,262.863 295.968,268.373 291.673 C 278.274 283.957,287.755 273.924,294.198 264.344 C 299.027 257.164,298.972 256.418,293.600 256.320 C 289.500 256.245,289.459 256.262,293.000 256.564 M62.468 264.600 C 63.664 267.779,70.188 279.253,72.133 281.600 L 73.790 283.600 72.453 281.365 C 68.595 274.912,66.520 271.160,64.507 267.000 C 62.170 262.167,61.061 260.862,62.468 264.600 M123.835 286.200 C 131.661 293.361,143.840 301.078,154.335 305.527 C 157.599 306.911,160.615 307.928,161.036 307.788 C 161.458 307.647,159.147 306.493,155.901 305.223 C 145.674 301.220,135.476 295.089,127.063 287.885 C 122.264 283.775,119.752 282.464,123.835 286.200 M77.681 290.200 C 83.298 297.504,86.217 300.767,93.815 308.233 C 98.647 312.982,102.790 316.677,103.022 316.444 C 103.254 316.212,102.406 315.207,101.138 314.211 C 95.746 309.977,82.086 295.333,79.215 290.709 C 78.563 289.659,77.709 288.800,77.317 288.800 C 76.925 288.800,77.089 289.430,77.681 290.200 M305.600 306.657 C 301.420 310.746,296.955 314.886,295.678 315.857 C 294.401 316.828,293.552 317.818,293.791 318.057 C 294.030 318.297,298.542 314.332,303.816 309.246 C 309.091 304.161,313.630 300.000,313.903 300.000 C 314.176 300.000,314.400 311.520,314.400 325.600 C 314.400 339.680,314.670 351.200,315.000 351.201 C 315.626 351.201,315.444 301.951,314.811 300.200 C 314.188 298.474,313.394 299.031,305.600 306.657 M240.400 306.458 C 238.640 307.304,238.100 307.772,239.200 307.499 C 241.465 306.935,245.624 304.850,244.400 304.891 C 243.960 304.906,242.160 305.611,240.400 306.458 M163.200 308.800 C 163.860 309.227,164.940 309.575,165.600 309.575 C 166.667 309.575,166.667 309.489,165.600 308.800 C 164.940 308.373,163.860 308.025,163.200 308.025 C 162.133 308.025,162.133 308.111,163.200 308.800 M230.400 309.600 C 227.980 310.394,226.485 311.078,227.077 311.122 C 228.402 311.218,236.800 308.818,236.800 308.343 C 236.800 307.746,234.935 308.113,230.400 309.600 M168.000 310.400 C 168.660 310.827,169.920 311.156,170.800 311.132 L 172.400 311.088 170.800 310.400 C 168.408 309.372,166.410 309.372,168.000 310.400 M174.000 312.000 C 174.880 312.378,176.500 312.688,177.600 312.688 C 179.423 312.688,179.458 312.627,178.000 312.000 C 177.120 311.622,175.500 311.312,174.400 311.312 C 172.577 311.312,172.542 311.373,174.000 312.000 M220.800 312.000 L 218.800 312.641 220.800 312.664 C 221.900 312.677,223.520 312.378,224.400 312.000 L 226.000 311.312 224.400 311.336 C 223.520 311.349,221.900 311.648,220.800 312.000 M183.600 313.573 C 185.100 314.243,195.856 314.742,195.133 314.108 C 194.950 313.947,191.920 313.600,188.400 313.337 C 184.382 313.037,182.596 313.125,183.600 313.573 M208.000 313.600 L 203.600 314.139 208.400 314.190 C 211.040 314.218,214.100 313.952,215.200 313.600 C 217.786 312.772,214.758 312.772,208.000 313.600 M289.810 320.250 C 288.386 321.212,287.216 322.295,287.210 322.654 C 287.199 323.376,291.670 320.381,292.423 319.163 C 293.068 318.119,292.793 318.234,289.810 320.250 M109.758 321.871 C 112.414 324.308,124.377 331.756,131.029 335.114 C 138.899 339.087,137.926 337.954,129.732 333.605 C 125.624 331.424,118.964 327.447,114.932 324.765 C 110.899 322.084,108.571 320.782,109.758 321.871 M278.000 328.469 C 271.200 332.759,256.999 339.423,249.285 341.943 C 248.453 342.215,247.971 342.638,248.216 342.883 C 249.564 344.231,281.600 328.718,281.600 326.717 C 281.600 326.225,281.409 326.318,278.000 328.469 M137.600 337.989 C 137.600 338.449,142.118 340.393,144.870 341.117 C 145.931 341.397,144.864 340.720,142.497 339.613 C 137.953 337.487,137.600 337.370,137.600 337.989 M147.200 341.974 C 147.200 342.612,160.832 346.635,161.324 346.143 C 161.580 345.887,160.756 345.445,159.494 345.159 C 158.232 344.874,155.196 343.957,152.747 343.120 C 148.107 341.536,147.200 341.349,147.200 341.974 M238.400 345.637 C 237.524 346.230,237.847 346.304,239.600 345.912 C 242.542 345.254,243.180 344.796,241.133 344.812 C 240.290 344.819,239.060 345.190,238.400 345.637 M164.000 347.200 C 167.083 348.187,168.728 348.187,167.200 347.200 C 166.540 346.773,165.100 346.455,164.000 346.492 L 162.000 346.559 164.000 347.200 M231.200 347.200 C 229.625 348.218,232.432 348.218,234.800 347.200 C 236.265 346.570,236.232 346.509,234.400 346.468 C 233.300 346.444,231.860 346.773,231.200 347.200 M171.600 348.800 C 172.920 349.136,174.720 349.428,175.600 349.449 L 177.200 349.488 175.600 348.800 C 174.720 348.422,172.920 348.130,171.600 348.151 L 169.200 348.189 171.600 348.800 M222.800 348.800 C 220.672 349.714,224.007 349.714,227.600 348.800 L 230.000 348.189 227.200 348.151 C 225.660 348.130,223.680 348.422,222.800 348.800 M183.200 350.441 C 185.180 350.793,188.600 351.063,190.800 351.041 L 194.800 351.000 191.200 350.359 C 189.220 350.007,185.800 349.737,183.600 349.759 L 179.600 349.800 183.200 350.441 M207.600 350.400 L 204.400 350.973 208.000 351.016 C 209.980 351.040,213.400 350.779,215.600 350.437 L 219.600 349.814 215.200 349.820 C 212.780 349.824,209.360 350.085,207.600 350.400 " stroke="none" fill="#e5efc7" fill-rule="evenodd"></path></g></svg>