<svg id="svg" version="1.1" width="1000" height="1000" xmlns="http://www.w3.org/2000/svg" xmlns:xlink="http://www.w3.org/1999/xlink" style="display: block;"><g id="svgg"><path id="path0" d="M148.000 95.244 L 148.000 104.488 188.700 104.344 L 229.400 104.200 233.375 105.102 C 256.550 110.363,267.800 124.840,267.800 149.400 C 267.800 173.376,257.166 188.097,235.704 193.831 C 229.880 195.388,224.511 195.581,186.900 195.591 L 151.600 195.600 151.600 246.000 L 151.600 296.400 161.600 296.400 L 171.600 296.400 171.600 255.000 L 171.600 213.600 200.300 213.597 C 230.562 213.593,234.655 213.403,241.800 211.674 C 266.991 205.577,283.642 187.578,288.015 161.720 C 293.560 128.922,277.665 99.956,248.600 89.893 C 237.778 86.146,235.510 86.000,188.184 86.000 L 148.000 86.000 148.000 95.244 M134.000 150.200 L 134.000 158.400 173.600 158.400 L 213.200 158.400 213.200 150.200 L 213.200 142.000 173.600 142.000 L 134.000 142.000 134.000 150.200 " stroke="none" fill="#ffffff" fill-rule="evenodd"></path><path id="path1" d="M194.400 0.805 C 191.596 1.491,188.914 2.074,179.698 4.005 C 177.661 4.431,174.331 5.132,172.298 5.562 C 170.264 5.992,167.250 6.614,165.600 6.944 C 160.754 7.913,154.453 9.212,150.800 9.995 C 148.930 10.396,145.510 11.118,143.200 11.600 C 140.890 12.082,137.470 12.802,135.600 13.200 C 133.730 13.598,130.310 14.310,128.000 14.781 C 125.690 15.253,122.180 15.980,120.200 16.397 C 114.527 17.591,109.289 18.668,105.600 19.397 C 103.730 19.766,100.670 20.403,98.800 20.811 C 96.930 21.219,93.510 21.939,91.200 22.410 C 88.890 22.881,85.470 23.594,83.600 23.995 C 81.730 24.396,78.310 25.118,76.000 25.600 C 73.690 26.082,70.270 26.802,68.400 27.200 C 66.530 27.598,63.110 28.317,60.800 28.798 C 58.490 29.279,55.430 29.941,54.000 30.270 C 52.570 30.598,50.500 31.025,49.400 31.219 C 46.393 31.747,39.601 33.170,37.900 33.627 L 36.400 34.031 36.400 149.608 C 36.400 230.303,36.530 266.063,36.832 268.093 C 37.744 274.228,39.426 279.206,43.085 286.600 C 46.143 292.779,46.470 293.372,47.336 294.329 C 47.701 294.733,48.000 295.175,48.000 295.311 C 48.000 295.448,48.585 296.397,49.300 297.421 C 50.015 298.444,50.780 299.574,51.000 299.932 C 51.220 300.289,51.595 300.766,51.833 300.991 C 52.071 301.216,52.941 302.345,53.767 303.500 C 54.592 304.655,55.433 305.600,55.634 305.600 C 55.835 305.600,56.000 305.752,56.000 305.937 C 56.000 306.752,70.783 321.904,75.184 325.600 C 76.101 326.370,77.155 327.298,77.526 327.663 C 77.897 328.027,80.630 330.238,83.600 332.575 C 86.570 334.912,89.317 337.089,89.705 337.412 C 90.092 337.735,90.578 338.000,90.785 338.000 C 90.991 338.000,91.304 338.225,91.480 338.500 C 91.656 338.775,92.700 339.621,93.800 340.379 C 94.900 341.138,95.890 341.863,96.000 341.989 C 96.110 342.116,97.550 343.116,99.200 344.210 C 100.850 345.305,102.290 346.290,102.400 346.400 C 102.510 346.510,105.030 348.198,108.000 350.151 C 110.970 352.103,113.888 354.038,114.484 354.451 C 115.080 354.863,115.667 355.200,115.788 355.200 C 115.909 355.200,116.905 355.830,118.000 356.600 C 119.095 357.370,120.080 358.000,120.188 358.000 C 120.296 358.000,121.423 358.672,122.692 359.494 C 123.962 360.315,125.405 361.215,125.900 361.494 C 126.395 361.772,127.205 362.228,127.700 362.506 C 128.195 362.785,129.638 363.685,130.908 364.506 C 132.177 365.328,133.355 366.000,133.526 366.000 C 133.697 366.000,134.189 366.280,134.619 366.623 C 135.048 366.966,137.090 368.181,139.156 369.323 C 141.222 370.465,143.562 371.796,144.356 372.281 C 145.150 372.765,146.070 373.290,146.400 373.446 C 146.730 373.602,147.478 374.061,148.062 374.465 C 148.646 374.869,149.411 375.200,149.762 375.200 C 150.113 375.200,150.400 375.360,150.400 375.557 C 150.400 375.753,151.075 376.212,151.900 376.577 C 152.725 376.942,154.300 377.764,155.400 378.404 C 156.500 379.044,158.480 380.115,159.800 380.785 C 161.120 381.454,162.470 382.153,162.800 382.339 C 163.130 382.524,163.805 382.884,164.300 383.138 C 164.795 383.392,165.605 383.808,166.100 384.062 C 166.595 384.316,167.270 384.674,167.600 384.856 C 167.930 385.039,168.830 385.517,169.600 385.918 C 170.370 386.320,171.405 386.863,171.900 387.124 C 172.395 387.386,173.160 387.780,173.600 388.000 C 174.040 388.220,174.760 388.580,175.200 388.800 C 175.640 389.020,176.360 389.380,176.800 389.600 C 177.240 389.820,177.960 390.180,178.400 390.400 C 178.840 390.620,179.560 390.980,180.000 391.200 C 180.440 391.420,181.115 391.767,181.500 391.971 C 181.885 392.175,184.360 393.364,187.000 394.614 C 189.640 395.863,192.115 397.046,192.500 397.243 C 195.936 398.997,198.380 400.000,199.217 400.000 C 200.467 400.000,200.252 378.694,199.000 378.463 C 198.560 378.381,197.445 377.974,196.522 377.557 C 195.599 377.141,194.717 376.800,194.562 376.800 C 194.407 376.800,193.272 376.331,192.040 375.758 C 190.808 375.185,189.440 374.570,189.000 374.391 C 188.120 374.033,184.412 372.403,181.600 371.138 C 178.376 369.687,177.435 369.267,175.000 368.192 C 173.680 367.609,171.367 366.517,169.859 365.766 C 168.351 365.015,166.911 364.396,166.659 364.391 C 166.407 364.386,165.750 364.030,165.200 363.600 C 164.650 363.170,163.930 362.810,163.600 362.800 C 163.270 362.790,162.550 362.430,162.000 362.000 C 161.450 361.570,160.730 361.210,160.400 361.200 C 160.070 361.190,159.350 360.830,158.800 360.400 C 158.250 359.970,157.558 359.614,157.262 359.609 C 156.966 359.604,156.201 359.228,155.562 358.773 C 154.923 358.318,154.400 358.070,154.400 358.222 C 154.400 358.374,154.175 358.319,153.900 358.100 C 153.422 357.719,146.358 353.925,143.000 352.245 C 142.120 351.805,141.310 351.320,141.200 351.167 C 141.090 351.015,140.370 350.603,139.600 350.253 C 138.167 349.601,137.417 349.172,135.516 347.916 C 134.920 347.522,134.155 347.200,133.816 347.200 C 133.477 347.200,133.200 347.063,133.200 346.897 C 133.200 346.730,131.852 345.875,130.203 344.997 C 128.555 344.118,127.205 343.265,127.203 343.100 C 127.202 342.935,126.840 342.800,126.400 342.800 C 125.960 342.800,125.600 342.647,125.600 342.461 C 125.600 342.274,124.880 341.797,124.000 341.400 C 123.120 341.003,122.400 340.553,122.400 340.400 C 122.400 340.247,121.680 339.797,120.800 339.400 C 119.920 339.003,119.200 338.526,119.200 338.339 C 119.200 338.153,119.016 338.000,118.791 338.000 C 118.390 338.000,115.191 336.044,114.800 335.560 C 114.690 335.423,114.060 335.011,113.400 334.644 C 112.740 334.276,111.660 333.619,111.000 333.183 C 110.340 332.747,109.485 332.282,109.100 332.149 C 108.715 332.016,108.400 331.786,108.400 331.640 C 108.400 331.493,107.815 331.032,107.100 330.616 C 106.385 330.201,105.710 329.750,105.600 329.616 C 105.427 329.406,101.951 327.000,100.085 325.800 C 99.743 325.580,99.179 325.183,98.832 324.917 C 98.484 324.651,97.480 323.890,96.600 323.226 C 95.720 322.562,94.730 321.779,94.400 321.486 C 94.070 321.193,92.585 320.100,91.100 319.057 C 89.615 318.013,88.400 316.989,88.400 316.780 C 88.400 316.571,88.170 316.400,87.889 316.400 C 87.608 316.400,87.080 316.085,86.717 315.700 C 86.354 315.315,85.755 314.751,85.387 314.446 C 81.682 311.378,79.071 309.112,77.400 307.514 C 76.300 306.463,74.455 304.723,73.300 303.647 C 72.145 302.572,71.200 301.595,71.200 301.476 C 71.200 301.357,70.342 300.391,69.293 299.330 C 66.675 296.682,62.000 290.985,62.000 290.443 C 62.000 290.200,61.832 290.000,61.626 290.000 C 61.420 290.000,60.847 289.280,60.352 288.400 C 59.857 287.520,59.306 286.800,59.126 286.800 C 58.947 286.800,58.800 286.589,58.800 286.331 C 58.800 286.074,58.555 285.579,58.256 285.231 C 57.792 284.692,56.679 282.751,54.913 279.400 C 54.448 278.518,53.237 275.587,52.186 272.800 C 49.655 266.091,49.861 275.914,49.716 155.300 L 49.585 46.400 51.268 46.400 C 52.194 46.400,54.853 46.048,57.176 45.619 C 59.499 45.189,63.290 44.552,65.600 44.203 C 70.259 43.500,77.404 42.360,84.400 41.203 C 86.930 40.785,91.430 40.064,94.400 39.602 C 97.370 39.139,101.870 38.421,104.400 38.005 C 109.672 37.139,116.700 36.005,124.200 34.809 C 127.060 34.353,131.290 33.624,133.600 33.189 C 135.910 32.755,138.316 32.399,138.947 32.400 C 139.578 32.400,141.558 32.135,143.347 31.812 C 145.136 31.488,148.940 30.850,151.800 30.393 C 164.139 28.422,167.243 27.912,171.400 27.171 C 173.820 26.740,176.157 26.390,176.594 26.394 C 177.030 26.397,179.370 26.050,181.794 25.621 C 188.124 24.502,195.893 23.244,198.100 22.979 L 200.000 22.751 200.000 11.375 L 200.000 0.000 198.700 0.035 C 197.985 0.055,196.050 0.401,194.400 0.805 M84.400 57.047 C 79.739 57.730,71.736 59.010,67.700 59.719 L 62.800 60.580 62.800 157.476 C 62.800 270.497,62.455 261.972,67.442 272.175 C 69.326 276.029,69.480 276.299,71.500 279.276 C 72.215 280.330,72.800 281.374,72.800 281.596 C 72.800 281.818,72.945 282.000,73.121 282.000 C 73.298 282.000,74.204 283.080,75.135 284.400 C 76.066 285.720,77.001 286.800,77.214 286.800 C 77.426 286.800,77.600 286.980,77.600 287.200 C 77.600 287.779,81.591 291.946,89.188 299.300 C 90.040 300.125,90.840 300.800,90.965 300.800 C 91.090 300.800,91.690 301.304,92.297 301.919 C 93.225 302.862,95.811 305.012,97.924 306.600 C 98.217 306.820,98.754 307.315,99.117 307.700 C 99.480 308.085,99.993 308.400,100.256 308.400 C 100.518 308.400,100.793 308.568,100.867 308.772 C 101.044 309.267,106.330 313.200,106.818 313.200 C 107.028 313.200,107.200 313.362,107.200 313.560 C 107.200 313.759,107.785 314.295,108.500 314.751 C 109.215 315.208,110.160 315.811,110.600 316.091 C 111.040 316.371,111.490 316.711,111.600 316.847 C 111.777 317.065,115.406 319.521,117.150 320.603 C 117.508 320.825,119.373 322.040,121.296 323.303 C 123.219 324.566,124.974 325.600,125.196 325.600 C 125.418 325.600,125.600 325.758,125.600 325.951 C 125.600 326.145,126.155 326.533,126.834 326.814 C 127.513 327.095,128.278 327.532,128.534 327.785 C 128.790 328.038,131.340 329.585,134.200 331.222 C 137.060 332.859,139.460 334.334,139.533 334.499 C 139.607 334.665,139.976 334.800,140.353 334.800 C 140.731 334.800,141.211 334.963,141.420 335.162 C 141.629 335.362,142.475 335.902,143.300 336.362 C 144.125 336.823,145.385 337.532,146.100 337.937 C 147.390 338.668,155.417 342.918,156.852 343.629 C 157.263 343.833,158.005 344.212,158.500 344.471 C 164.030 347.367,177.963 354.002,182.200 355.759 C 183.577 356.330,186.176 357.496,188.844 358.740 C 189.858 359.213,190.848 359.600,191.044 359.599 C 191.240 359.598,192.120 359.942,193.000 360.362 C 199.060 363.259,200.090 363.424,203.304 362.014 C 206.982 360.400,208.547 359.728,210.800 358.795 C 212.010 358.294,213.720 357.562,214.600 357.169 C 217.163 356.022,222.462 353.624,224.200 352.824 C 226.907 351.578,236.076 347.152,238.400 345.969 C 251.988 339.057,253.782 338.098,259.600 334.645 C 260.590 334.057,261.895 333.384,262.500 333.149 C 263.105 332.914,263.600 332.571,263.600 332.388 C 263.600 332.204,263.958 331.940,264.395 331.802 C 265.180 331.552,267.879 330.048,269.939 328.711 C 270.522 328.332,271.630 327.656,272.400 327.207 C 273.170 326.759,274.143 326.169,274.563 325.896 C 274.982 325.623,277.052 324.280,279.163 322.911 C 281.273 321.542,283.279 320.224,283.619 319.981 C 283.960 319.738,285.116 318.968,286.187 318.270 C 290.195 315.658,293.623 313.240,294.460 312.435 C 294.822 312.086,296.029 311.170,297.141 310.400 C 298.253 309.630,299.171 308.865,299.181 308.700 C 299.192 308.535,299.464 308.400,299.786 308.400 C 300.108 308.400,300.565 308.040,300.800 307.600 C 301.035 307.160,301.492 306.800,301.814 306.800 C 302.136 306.800,302.400 306.663,302.400 306.495 C 302.400 306.327,303.435 305.382,304.699 304.395 C 307.215 302.431,308.071 301.689,311.612 298.400 C 312.915 297.190,314.210 296.000,314.490 295.756 C 315.100 295.224,320.578 289.399,322.012 287.758 C 323.853 285.650,328.495 279.430,328.915 278.507 C 329.142 278.008,329.480 277.600,329.664 277.600 C 329.849 277.600,330.000 277.443,330.000 277.251 C 330.000 277.060,327.975 276.780,325.500 276.629 C 264.406 272.910,213.520 255.892,175.728 226.541 C 173.928 225.144,172.353 224.000,172.228 224.000 C 172.103 224.000,172.000 240.380,172.000 260.400 L 172.000 296.800 161.400 296.800 L 150.800 296.800 150.800 250.455 L 150.800 204.111 147.100 199.955 C 115.483 164.449,94.414 115.591,87.095 60.804 C 86.562 56.812,86.509 56.739,84.400 57.047 " stroke="none" fill="#372f44" fill-rule="evenodd"></path><path id="path2" d="M200.000 11.375 L 200.000 22.751 201.900 22.979 C 203.680 23.192,207.283 23.762,218.400 25.589 C 220.930 26.004,225.430 26.728,228.400 27.196 C 231.370 27.664,235.240 28.295,237.000 28.598 C 238.760 28.901,241.010 29.256,242.000 29.387 C 242.990 29.518,245.870 29.974,248.400 30.400 C 250.930 30.826,254.890 31.461,257.200 31.811 C 261.206 32.419,264.948 33.017,275.900 34.802 C 278.595 35.241,283.005 35.951,285.700 36.381 C 288.395 36.811,292.850 37.529,295.600 37.978 C 298.350 38.426,302.850 39.156,305.600 39.600 C 308.350 40.043,312.220 40.668,314.200 40.989 C 316.180 41.309,318.610 41.678,319.600 41.809 C 320.590 41.940,322.750 42.298,324.400 42.606 C 326.050 42.913,328.120 43.261,329.000 43.377 C 331.521 43.712,338.189 44.780,343.037 45.626 C 345.478 46.052,348.043 46.400,348.737 46.400 L 350.000 46.400 350.000 154.756 C 350.000 250.774,349.930 263.492,349.382 266.456 C 348.141 273.172,345.595 279.251,341.000 286.476 C 335.363 295.338,321.350 309.695,310.204 318.026 C 308.707 319.145,307.261 320.272,306.990 320.530 C 306.720 320.789,305.478 321.720,304.230 322.600 C 302.983 323.480,300.756 325.081,299.281 326.157 C 292.186 331.337,273.145 343.409,267.264 346.456 C 266.089 347.064,264.919 347.728,264.664 347.931 C 264.409 348.133,262.940 348.977,261.400 349.806 C 259.860 350.635,257.790 351.758,256.800 352.301 C 247.497 357.408,232.415 364.876,221.400 369.828 C 220.740 370.125,218.622 371.095,216.692 371.984 C 214.763 372.873,213.080 373.600,212.953 373.600 C 212.825 373.600,212.154 373.856,211.460 374.170 C 209.878 374.884,205.319 376.800,202.300 378.019 L 200.000 378.947 200.000 389.474 C 200.000 399.100,200.058 400.000,200.678 400.000 C 202.733 400.000,243.269 380.575,252.600 375.119 C 253.920 374.347,255.990 373.176,257.200 372.517 C 258.410 371.857,260.075 370.931,260.900 370.459 C 261.725 369.987,262.985 369.268,263.700 368.861 C 264.415 368.455,267.520 366.610,270.600 364.761 C 273.680 362.913,276.384 361.310,276.609 361.200 C 277.064 360.977,281.200 358.306,282.884 357.146 C 283.480 356.736,284.044 356.400,284.138 356.400 C 284.348 356.400,297.820 347.381,299.200 346.317 C 299.750 345.892,302.450 343.893,305.200 341.872 C 310.282 338.139,319.039 331.231,321.820 328.760 C 322.663 328.012,324.443 326.427,325.776 325.238 C 347.178 306.149,360.500 285.694,363.024 268.047 C 363.481 264.855,363.577 244.612,363.587 149.119 L 363.600 34.038 362.132 33.632 C 361.325 33.409,359.660 33.031,358.432 32.791 C 355.073 32.135,350.639 31.229,346.400 30.333 C 340.967 29.184,336.002 28.147,331.400 27.202 C 329.200 26.750,325.780 26.033,323.800 25.608 C 321.820 25.184,318.400 24.461,316.200 24.002 C 314.000 23.544,310.580 22.830,308.600 22.417 C 301.018 20.836,296.507 19.904,294.000 19.400 C 290.960 18.789,284.431 17.429,279.600 16.400 C 277.730 16.002,274.310 15.287,272.000 14.811 C 269.690 14.335,266.180 13.606,264.200 13.191 C 262.220 12.776,258.800 12.062,256.600 11.604 C 248.842 9.990,244.962 9.176,241.400 8.416 C 239.420 7.993,236.270 7.350,234.400 6.986 C 231.260 6.375,229.527 6.015,220.000 3.997 C 218.130 3.600,214.800 2.901,212.600 2.442 C 210.400 1.984,206.958 1.246,204.950 0.804 C 202.943 0.362,201.008 0.000,200.650 0.000 C 200.065 0.000,200.000 1.138,200.000 11.375 M193.000 39.606 C 190.800 40.010,186.570 40.724,183.600 41.193 C 180.630 41.662,176.130 42.381,173.600 42.790 C 169.071 43.524,166.088 43.994,155.800 45.597 C 152.940 46.043,148.440 46.762,145.800 47.196 C 143.160 47.630,138.706 48.352,135.901 48.800 C 133.097 49.249,128.553 49.975,125.803 50.415 C 123.053 50.855,118.553 51.575,115.803 52.015 C 113.053 52.455,108.507 53.180,105.701 53.626 C 102.896 54.073,98.620 54.777,96.200 55.193 C 93.780 55.608,90.853 56.056,89.695 56.188 C 86.303 56.576,86.467 56.190,87.258 61.913 C 94.803 116.538,115.657 164.645,147.098 199.953 L 150.797 204.107 150.900 250.553 L 151.003 297.000 151.102 246.115 L 151.200 195.230 190.300 195.087 C 233.362 194.929,231.690 195.022,239.660 192.365 C 258.969 185.929,269.675 167.547,267.612 144.371 C 265.856 124.650,255.253 111.355,237.327 106.399 C 230.308 104.458,227.535 104.364,186.100 104.657 L 147.600 104.929 147.600 95.249 L 147.600 85.569 190.300 85.702 C 231.895 85.831,233.114 85.857,237.400 86.684 C 270.332 93.043,289.221 116.008,289.195 149.651 C 289.172 179.070,273.854 201.474,247.804 210.189 C 237.294 213.706,233.660 213.992,199.500 213.997 L 172.000 214.000 172.010 218.900 L 172.021 223.800 176.910 227.444 C 216.494 256.947,265.693 273.218,325.600 276.621 L 330.200 276.883 332.283 272.541 C 333.429 270.154,334.865 266.760,335.476 265.000 L 336.585 261.800 336.699 161.175 L 336.814 60.549 331.907 59.694 C 326.370 58.728,319.023 57.537,312.800 56.596 C 310.490 56.247,306.530 55.622,304.000 55.207 C 301.470 54.792,296.970 54.067,294.000 53.595 C 291.030 53.124,286.530 52.403,284.000 51.993 C 281.470 51.583,277.150 50.889,274.400 50.450 C 266.529 49.194,259.409 48.051,254.200 47.208 C 247.263 46.084,239.597 44.871,235.000 44.169 C 232.800 43.832,228.930 43.216,226.400 42.798 C 223.870 42.381,219.370 41.658,216.400 41.191 C 213.430 40.724,209.020 39.993,206.600 39.567 C 201.280 38.631,198.268 38.639,193.000 39.606 M213.600 150.000 L 213.600 158.400 173.600 158.400 L 133.600 158.400 133.600 150.267 C 133.600 145.793,133.720 142.013,133.867 141.867 C 134.013 141.720,152.013 141.600,173.867 141.600 L 213.600 141.600 213.600 150.000 " stroke="none" fill="#5c4c7c" fill-rule="evenodd"></path><path id="path3" d="M168.100 85.900 C 179.485 85.959,198.115 85.959,209.500 85.900 C 220.885 85.841,211.570 85.793,188.800 85.793 C 166.030 85.793,156.715 85.841,168.100 85.900 M270.400 102.525 C 270.400 102.594,270.985 103.179,271.700 103.825 L 273.000 105.000 271.825 103.700 C 270.730 102.488,270.400 102.216,270.400 102.525 M159.500 104.700 C 166.155 104.761,177.045 104.761,183.700 104.700 C 190.355 104.638,184.910 104.588,171.600 104.588 C 158.290 104.588,152.845 104.638,159.500 104.700 M226.500 104.676 C 226.885 104.776,227.515 104.776,227.900 104.676 C 228.285 104.575,227.970 104.493,227.200 104.493 C 226.430 104.493,226.115 104.575,226.500 104.676 M254.800 115.725 C 254.800 115.794,255.385 116.379,256.100 117.025 L 257.400 118.200 256.225 116.900 C 255.130 115.688,254.800 115.416,254.800 115.725 M133.769 150.200 C 133.770 154.820,133.828 156.655,133.899 154.278 C 133.970 151.901,133.969 148.121,133.898 145.878 C 133.827 143.635,133.769 145.580,133.769 150.200 M267.693 145.600 C 267.693 146.370,267.775 146.685,267.876 146.300 C 267.976 145.915,267.976 145.285,267.876 144.900 C 267.775 144.515,267.693 144.830,267.693 145.600 M267.693 153.200 C 267.693 153.970,267.775 154.285,267.876 153.900 C 267.976 153.515,267.976 152.885,267.876 152.500 C 267.775 152.115,267.693 152.430,267.693 153.200 M255.781 182.500 L 254.200 184.200 255.900 182.619 C 257.481 181.148,257.784 180.800,257.481 180.800 C 257.416 180.800,256.651 181.565,255.781 182.500 M271.387 195.700 L 269.000 198.200 271.500 195.813 C 272.875 194.499,274.000 193.374,274.000 193.313 C 274.000 193.017,273.605 193.378,271.387 195.700 M153.500 195.496 C 154.875 195.574,157.125 195.574,158.500 195.496 C 159.875 195.418,158.750 195.354,156.000 195.354 C 153.250 195.354,152.125 195.418,153.500 195.496 M171.784 214.100 C 171.680 214.375,171.641 233.140,171.699 255.800 L 171.804 297.000 171.902 255.503 L 172.000 214.005 200.500 213.900 L 229.000 213.795 200.487 213.697 C 177.974 213.620,171.935 213.705,171.784 214.100 " stroke="none" fill="#9e95b1" fill-rule="evenodd"></path><path id="path4" d="M147.772 95.200 C 147.772 100.370,147.829 102.485,147.899 99.900 C 147.968 97.315,147.968 93.085,147.899 90.500 C 147.829 87.915,147.772 90.030,147.772 95.200 M203.100 104.299 C 207.335 104.364,214.265 104.364,218.500 104.299 C 222.735 104.235,219.270 104.182,210.800 104.182 C 202.330 104.182,198.865 104.235,203.100 104.299 M173.492 141.899 L 213.184 142.004 213.305 150.302 L 213.426 158.600 213.413 150.200 L 213.400 141.800 173.600 141.797 L 133.800 141.794 173.492 141.899 M267.693 143.200 C 267.693 143.970,267.775 144.285,267.876 143.900 C 267.976 143.515,267.976 142.885,267.876 142.500 C 267.775 142.115,267.693 142.430,267.693 143.200 M288.960 149.400 C 288.961 152.700,289.022 153.997,289.098 152.282 C 289.173 150.567,289.172 147.867,289.097 146.282 C 289.021 144.697,288.959 146.100,288.960 149.400 M267.693 155.600 C 267.693 156.370,267.775 156.685,267.876 156.300 C 267.976 155.915,267.976 155.285,267.876 154.900 C 267.775 154.515,267.693 154.830,267.693 155.600 M176.500 195.500 C 185.245 195.560,199.555 195.560,208.300 195.500 C 217.045 195.440,209.890 195.391,192.400 195.391 C 174.910 195.391,167.755 195.440,176.500 195.500 M151.398 246.000 L 151.400 296.600 161.500 296.611 L 171.600 296.621 161.602 296.504 L 151.603 296.386 151.499 245.893 L 151.395 195.400 151.398 246.000 " stroke="none" fill="#d5d2d8" fill-rule="evenodd"></path></g></svg>